<?xml version="1.0" encoding="UTF-8"?>
<!DOCTYPE svg PUBLIC "-//W3C//DTD SVG 1.1//EN" "http://www.w3.org/Graphics/SVG/1.1/DTD/svg11.dtd">
<!-- Creator: CorelDRAW X7 -->
<svg xmlns="http://www.w3.org/2000/svg" xml:space="preserve" width="566px" height="75px" version="1.1" style="shape-rendering:geometricPrecision; text-rendering:geometricPrecision; image-rendering:optimizeQuality; fill-rule:evenodd; clip-rule:evenodd"
viewBox="0 0 566 75"
 xmlns:xlink="http://www.w3.org/1999/xlink">
 <defs>
  <style type="text/css">
   <![CDATA[
    .str0 {stroke:#282828;stroke-width:1.90857}
    .str1 {stroke:#8E8E8E;stroke-width:0.763654}
    .fil7 {fill:none}
    .fil3 {fill:none;fill-rule:nonzero}
    .fil42 {fill:#CA3270}
    .fil8 {fill:#FEFEFE;fill-rule:nonzero}
    .fil9 {fill:#F9FCFE;fill-rule:nonzero}
    .fil10 {fill:#F7F7F8;fill-rule:nonzero}
    .fil11 {fill:#F7F5F5;fill-rule:nonzero}
    .fil12 {fill:#F3F4F4;fill-rule:nonzero}
    .fil13 {fill:#F1F3F4;fill-rule:nonzero}
    .fil14 {fill:#F1F1F0;fill-rule:nonzero}
    .fil15 {fill:#EEEFF0;fill-rule:nonzero}
    .fil16 {fill:#EEEEEE;fill-rule:nonzero}
    .fil17 {fill:#ECEDEE;fill-rule:nonzero}
    .fil18 {fill:#EDEBEA;fill-rule:nonzero}
    .fil19 {fill:#EAEAEA;fill-rule:nonzero}
    .fil20 {fill:#E8E9E8;fill-rule:nonzero}
    .fil21 {fill:#E8E7E8;fill-rule:nonzero}
    .fil22 {fill:#E5E6E5;fill-rule:nonzero}
    .fil23 {fill:#E5E4E4;fill-rule:nonzero}
    .fil24 {fill:#E2E3E4;fill-rule:nonzero}
    .fil25 {fill:#E2E3E3;fill-rule:nonzero}
    .fil26 {fill:#E0E1E2;fill-rule:nonzero}
    .fil27 {fill:#E0E1E0;fill-rule:nonzero}
    .fil28 {fill:#DDDEDE;fill-rule:nonzero}
    .fil29 {fill:#DDDDDC;fill-rule:nonzero}
    .fil30 {fill:#DBDBDB;fill-rule:nonzero}
    .fil31 {fill:#DCDBD9;fill-rule:nonzero}
    .fil32 {fill:#D9DAD9;fill-rule:nonzero}
    .fil33 {fill:#D9D8D8;fill-rule:nonzero}
    .fil34 {fill:#D7D8D8;fill-rule:nonzero}
    .fil35 {fill:#D7D7D6;fill-rule:nonzero}
    .fil36 {fill:#D7D5D5;fill-rule:nonzero}
    .fil37 {fill:#D4D4D4;fill-rule:nonzero}
    .fil38 {fill:#D4D3D3;fill-rule:nonzero}
    .fil1 {fill:#D2D2D3;fill-rule:nonzero}
    .fil0 {fill:#CA3270;fill-rule:nonzero}
    .fil2 {fill:#282828;fill-rule:nonzero}
    .fil6 {fill:url(#id0)}
    .fil47 {fill:url(#id1)}
    .fil41 {fill:url(#id2)}
    .fil44 {fill:url(#id3)}
    .fil5 {fill:url(#id4)}
    .fil4 {fill:url(#id5)}
    .fil46 {fill:url(#id6)}
    .fil43 {fill:url(#id7)}
    .fil40 {fill:url(#id8)}
    .fil45 {fill:url(#id9)}
    .fil39 {fill:url(#id10)}
   ]]>
  </style>
  <linearGradient id="id0" gradientUnits="userSpaceOnUse" x1="247.044" y1="1.0046" x2="307.184" y2="1.0046">
   <stop offset="0" style="stop-opacity:1; stop-color:#FEFEFE"/>
   <stop offset="1" style="stop-opacity:1; stop-color:#D4D4D2"/>
  </linearGradient>
  <linearGradient id="id1" gradientUnits="userSpaceOnUse" x1="392.702" y1="39.6201" x2="423.071" y2="39.6201">
   <stop offset="0" style="stop-opacity:1; stop-color:#D5E9F8"/>
   <stop offset="1" style="stop-opacity:1; stop-color:#5DA1D7"/>
  </linearGradient>
  <linearGradient id="id2" gradientUnits="userSpaceOnUse" xlink:href="#id1" x1="392.702" y1="3.89395" x2="423.071" y2="3.89395">
  </linearGradient>
  <linearGradient id="id3" gradientUnits="userSpaceOnUse" xlink:href="#id1" x1="392.702" y1="21.757" x2="423.071" y2="21.757">
  </linearGradient>
  <linearGradient id="id4" gradientUnits="userSpaceOnUse" x1="309.728" y1="75.9101" x2="309.728" y2="121.089">
   <stop offset="0" style="stop-opacity:1; stop-color:#B4B4B4"/>
   <stop offset="1" style="stop-opacity:1; stop-color:#8F8E8C"/>
  </linearGradient>
  <linearGradient id="id5" gradientUnits="userSpaceOnUse" x1="309.728" y1="3.23093" x2="309.728" y2="75.9101">
   <stop offset="0" style="stop-opacity:1; stop-color:#D0D2D3"/>
   <stop offset="1" style="stop-opacity:1; stop-color:#B4B4B4"/>
  </linearGradient>
  <linearGradient id="id6" gradientUnits="userSpaceOnUse" x1="413.727" y1="39.5759" x2="423.071" y2="39.5759">
   <stop offset="0" style="stop-opacity:1; stop-color:#4162AC"/>
   <stop offset="1" style="stop-opacity:1; stop-color:#3981C2"/>
  </linearGradient>
  <linearGradient id="id7" gradientUnits="userSpaceOnUse" xlink:href="#id6" x1="413.727" y1="21.7128" x2="423.071" y2="21.7128">
  </linearGradient>
  <linearGradient id="id8" gradientUnits="userSpaceOnUse" xlink:href="#id6" x1="413.727" y1="3.85002" x2="423.071" y2="3.85002">
  </linearGradient>
  <linearGradient id="id9" gradientUnits="userSpaceOnUse" x1="392.702" y1="39.5759" x2="413.727" y2="39.5759">
   <stop offset="0" style="stop-opacity:1; stop-color:#5B78B9"/>
   <stop offset="1" style="stop-opacity:1; stop-color:#2AA5D2"/>
  </linearGradient>
  <linearGradient id="id10" gradientUnits="userSpaceOnUse" xlink:href="#id9" x1="392.702" y1="3.85002" x2="413.727" y2="3.85002">
  </linearGradient>
 </defs>
 <g id="Layer_x0020_1">
  <metadata id="CorelCorpID_0Corel-Layer"/>
  <g id="_1872449323216">
   <path class="fil0" d="M29 12c0,0 0,1 1,2 0,0 0,-1 0,-1 0,0 1,1 1,1 0,0 0,0 0,0 0,0 0,0 -1,1 0,0 0,0 0,-1 0,1 0,1 0,1 0,0 0,0 0,0 0,1 0,1 0,1 0,0 0,0 0,0 0,0 0,0 0,0 0,0 0,1 0,1 0,0 0,0 0,0 0,0 0,0 0,0 0,0 0,0 -1,0 0,0 0,0 0,0 0,0 0,1 0,1 0,0 0,0 0,0 1,2 1,3 1,4 0,2 -1,3 -5,4 0,0 1,1 1,2 0,0 0,0 -1,0 0,-2 -1,-3 -1,-3 -1,0 -2,0 -2,0 -2,0 -3,1 -3,3 -1,0 -1,0 -1,0 -1,0 -2,1 -5,1 0,0 0,0 0,0 0,0 0,0 0,0 0,0 0,0 0,1 0,0 0,0 0,0 0,0 0,0 0,0 -1,0 -2,0 -3,0 0,0 0,0 0,0 0,0 0,0 0,0 0,0 1,0 1,0 0,0 0,-1 0,-1 0,0 0,0 -1,0 0,0 -1,0 -1,0 0,0 0,1 -1,1 0,0 0,0 0,0 1,-1 1,-1 2,-1 0,0 0,0 0,0 3,0 4,-1 4,-2 0,0 0,1 0,1 3,-1 4,-1 6,-2 0,0 0,-1 0,-1 -1,0 -1,0 -2,0 0,0 0,0 0,-1 0,0 -1,0 -1,0 0,0 -1,0 -1,0 0,0 0,0 0,0 0,0 0,0 0,0 -3,0 -6,-1 -9,-3 0,0 -1,0 -1,0 0,0 0,0 0,1 0,0 0,0 0,-1 -3,-1 -5,-3 -5,-4 0,0 0,0 -1,0 0,1 0,1 0,1 0,0 0,0 0,0 0,0 0,1 0,1 0,0 0,0 0,0 0,3 0,7 0,10 0,0 0,0 0,0 0,0 0,0 0,0 1,0 1,0 1,0 4,-1 6,-2 6,-4 0,0 0,1 1,1 0,0 0,0 1,0 0,0 1,0 1,0 0,0 0,0 0,1 0,0 0,0 0,0 0,0 1,0 1,0 0,0 0,1 0,1 0,0 -1,0 -1,0 0,-1 0,-1 -1,-1 0,0 0,0 0,0 -1,0 -1,0 -1,0 0,0 0,0 -1,0 0,0 0,0 0,0 0,1 -1,1 -1,1 0,1 0,1 0,2 0,0 0,0 0,0 0,1 0,1 1,1 0,0 0,0 0,0 0,0 -1,0 -1,1 -1,-1 -1,-2 -1,-2 0,0 0,0 -1,0 0,0 0,0 0,0 0,0 0,0 0,0 -3,0 -4,1 -4,1 0,0 0,0 0,0 0,0 0,0 1,0 0,0 0,0 1,0 0,0 0,0 0,0 -2,0 -2,1 -2,1 0,6 0,11 0,16 1,0 1,0 1,0 4,-1 6,-2 6,-3 0,0 0,0 0,1 0,0 1,0 2,1 1,0 2,0 2,0 0,1 1,1 1,2 2,0 2,1 2,1 1,0 1,0 1,0 0,0 1,0 1,0 0,0 0,0 0,0 0,0 1,1 1,1 3,-2 4,-3 4,-3 0,0 0,0 0,0 -1,0 -2,0 -3,0 0,-3 0,-6 0,-9 2,0 5,0 7,0 0,-1 1,-1 1,-1 0,0 0,-1 0,-1 0,0 0,-1 0,-2 1,0 1,1 2,2 2,0 3,-1 3,-2 0,0 0,1 0,1 2,-1 3,-1 3,-1 0,0 0,0 0,-1 0,0 -1,1 -1,1 -1,0 -1,0 -1,0 -3,-1 -5,-1 -5,-2 0,0 -1,0 -1,0 0,1 0,1 0,2 0,0 0,0 0,0 0,-2 -1,-2 -1,-2 0,0 0,0 0,0 0,0 0,0 0,0 0,0 0,0 1,0 0,0 0,-1 0,-1 -1,0 -1,0 -1,0 0,0 -1,0 -1,0 0,0 0,0 0,0 0,0 0,0 0,0 0,0 0,0 0,0 -1,0 -1,0 -1,0 -1,0 -1,0 -1,0 0,0 0,0 0,0 -3,-2 -4,-2 -4,-2 0,-1 0,-1 0,-1 0,0 0,0 0,0 0,1 2,1 5,1 2,0 2,-1 2,-1 0,0 0,0 1,0 0,0 0,1 1,3 2,0 3,1 4,1 0,0 0,0 0,0 0,0 1,0 1,0 0,0 0,0 0,0 1,0 2,0 3,0 0,0 0,0 0,0 0,-1 1,-1 1,-1 0,0 1,0 1,0 0,0 0,0 0,0 2,0 3,0 3,-2 3,-1 4,-2 5,-2 0,-2 1,-2 2,-2 0,-1 0,-1 0,-1 -1,0 -1,0 -1,0 0,0 0,0 0,0 0,0 1,-1 1,-1 0,0 0,0 0,0 0,0 0,0 -1,0 1,-1 1,-1 1,-1 0,-1 0,-1 0,-1 0,0 0,-1 1,-1 0,0 0,0 0,0 0,0 -1,0 -1,0 1,-2 1,-3 1,-3 0,0 -1,-1 -1,-3 0,0 0,0 0,0 0,0 0,0 0,1 0,0 1,0 1,0 0,-1 -2,-2 -4,-2 0,0 0,0 0,0 0,0 0,0 0,0 0,0 -1,0 -1,0 0,0 0,0 0,0 0,0 0,-1 0,-1 -1,0 -1,-1 -2,-1 0,0 -1,0 -1,0 0,0 0,1 1,1 0,0 0,0 0,0 0,0 0,0 0,0 -1,0 -1,0 -1,0 0,-1 0,-1 0,-1 -1,0 -1,0 -2,0 0,0 0,0 0,1 -1,0 -1,0 -1,0 0,0 0,0 0,-1 -1,0 -2,1 -2,1 -1,0 -1,0 -1,0 0,0 0,0 0,0 1,0 1,0 1,0 0,0 0,0 0,0 -1,0 -2,1 -3,1 0,0 0,0 0,0 1,0 1,-1 1,-1 -1,0 -2,-1 -4,-1 0,0 0,0 0,0zm-22 -8c-2,0 -3,1 -3,1 -3,2 -4,4 -4,7 0,1 0,3 0,4 0,0 0,0 0,0 0,0 0,0 0,0 0,0 1,0 1,0 1,-1 2,-3 3,-5 0,0 0,0 0,0 0,0 0,0 0,0 0,-1 0,-2 1,-2 0,0 0,0 0,-1 -1,0 -1,-1 -1,-2 0,0 0,0 0,0 0,1 1,1 2,1 0,0 0,0 0,0 0,1 0,1 0,2 0,0 0,0 1,0 0,0 0,0 0,1 -1,0 -1,0 -1,0 0,0 0,0 0,0 0,0 1,0 1,0 0,0 0,0 0,1 -1,0 -1,0 -1,0 0,0 0,0 0,0 0,0 0,1 0,2 0,2 1,4 1,5 2,4 5,6 10,6 1,0 1,-1 1,-1 0,-2 0,-3 0,-5 2,0 5,0 7,0 1,0 2,0 3,0 1,-1 1,-2 1,-2 0,-1 0,-1 0,-1 0,0 0,0 0,-1 0,0 0,0 0,0 0,0 0,0 0,0 0,-1 -1,-2 -1,-3 0,0 0,0 0,0 -1,-4 -2,-6 -3,-6 0,0 0,0 -1,0 -1,0 -2,0 -3,0 0,0 0,0 0,0 -1,0 -2,0 -3,0 0,0 -1,0 -2,0 0,0 -1,0 -1,0 0,0 0,0 0,0 0,0 0,0 0,0 0,0 0,0 0,0 0,0 0,0 1,-1 0,1 1,1 1,1 0,0 0,-1 0,-1 0,1 0,1 0,1 0,0 1,0 1,0 0,0 0,0 1,-1 0,1 0,1 0,1 0,0 0,-1 0,-1 0,0 0,0 0,0 0,0 0,0 0,0 -1,0 -1,0 -1,0 0,0 0,0 0,0 0,0 -1,0 -1,0 -1,0 -2,0 -4,0 -4,0 -5,0 -6,0zm34 29c-1,0 -2,0 -3,1 0,0 0,0 0,0 0,0 0,0 0,0 0,0 0,0 0,0 -1,0 -1,1 -1,1 -5,1 -8,2 -8,4 3,0 4,2 4,4 0,3 -1,4 -6,5 2,5 6,7 11,7 1,0 1,0 2,0 3,-1 4,-2 4,-3 1,-1 2,-2 2,-3 0,0 0,0 0,0 0,-1 0,-1 0,-2 0,0 0,0 0,-1 0,0 0,0 0,0 0,0 0,0 0,0 0,0 0,0 0,0 0,0 0,-1 1,-1 0,0 0,0 0,0 -1,0 -1,-1 -1,-1 0,0 0,0 1,0 0,-2 0,-3 0,-3 0,0 0,0 0,0 0,0 0,-1 0,-1 0,0 0,0 0,0 0,-1 0,-1 0,-2 0,0 0,0 0,0 0,-1 0,-2 -1,-2 0,-1 -3,-2 -7,-2 0,0 -1,0 -1,0 0,0 0,0 0,0 1,0 1,0 2,0 0,0 1,0 1,0 0,0 0,-1 0,-1 0,0 0,0 0,0zm-34 14c-3,1 -5,2 -7,3 0,0 0,0 0,0 0,0 1,0 3,-1 0,0 0,0 0,0 0,0 0,0 0,0 -2,1 -3,2 -3,2 0,1 0,2 0,2 0,6 3,9 10,9 1,0 2,0 3,0 0,0 1,0 1,-1 0,0 0,0 0,0 0,0 0,0 0,1 0,0 0,0 1,0 0,-1 0,-1 0,-2 0,-1 0,-2 0,-3 0,0 0,0 0,0 0,0 -1,0 -1,0 0,0 0,0 1,0 0,-1 0,-2 0,-2 0,-1 -1,-1 -1,-1 1,0 1,0 1,0 0,0 0,0 -1,-1 0,0 0,0 0,0 0,1 0,1 0,1 0,0 0,0 0,0 0,-1 -1,-2 -1,-2 0,0 0,-1 0,-2 -1,0 -1,0 -1,0 0,-2 -1,-2 -4,-3 0,0 0,0 0,0 0,0 -1,0 -1,0 0,0 0,0 0,0zm28 10c0,0 0,0 1,0 0,0 0,0 0,0 0,0 0,0 0,0 -1,0 -2,-1 -3,-1 0,0 0,0 0,0 0,0 0,0 0,0 0,0 0,0 1,0 0,0 0,0 0,0 0,0 0,0 0,-1 -1,0 -3,-1 -6,-2 -1,0 -1,0 -1,0 0,0 0,0 0,0 2,1 3,1 3,1 -2,0 -3,0 -4,-1 0,0 0,0 -1,0 0,0 0,0 0,0 0,0 0,0 -1,0 0,1 1,1 1,1 -1,0 -1,0 -1,0 0,0 0,0 0,-1 0,0 0,1 -1,1 0,0 0,-1 -1,-1 0,0 0,0 0,0 -3,1 -4,1 -4,1 -2,0 -3,1 -3,3 0,1 0,1 1,1 -1,1 -1,2 -1,2 0,1 0,1 0,1 1,1 1,1 1,1 3,0 7,0 10,0 8,0 12,-1 12,-2 0,0 0,0 0,0 0,0 0,0 0,0 0,0 0,0 0,0 0,0 0,0 0,0 -1,-1 -1,-2 -2,-3 0,-1 0,-1 0,-1 -1,0 -1,0 -1,0 0,0 0,0 0,1zm-9 -53c1,2 2,3 2,4 1,2 3,3 5,3 1,0 1,0 1,0 0,0 0,0 1,0 2,0 3,0 3,0 0,0 1,0 1,0 0,0 0,0 0,0 0,0 0,0 0,0 2,0 3,-1 4,-3 -4,-3 -9,-4 -17,-4 0,0 0,0 0,0zm23 32c0,0 0,1 0,1 0,0 0,1 0,1 0,0 0,0 0,0 0,1 0,1 0,1 1,0 1,0 1,0 0,0 0,0 0,0 0,0 0,0 0,0 0,1 0,1 0,1 0,0 -1,0 -1,0 0,0 0,0 0,0 0,1 0,1 1,1 0,0 -1,1 -1,2 0,1 0,2 0,2 0,1 0,2 0,4 0,1 1,2 2,3 1,-2 2,-4 2,-6 0,-1 0,-2 0,-2 0,-3 -2,-6 -4,-8 0,0 0,0 0,0 0,0 0,0 0,0zm-4 18c0,0 -1,0 -1,0 0,0 0,0 0,0 0,0 0,0 0,0 -1,0 -2,1 -2,1 -4,0 -6,1 -6,1 1,2 2,2 2,2 1,0 1,0 2,0 0,1 0,1 1,2 4,-2 7,-3 9,-6 0,0 0,0 0,0 -1,0 -1,0 -1,0 -1,0 -2,0 -3,0 0,0 0,0 -1,0 0,0 0,0 0,0zm-22 -6c-1,0 -2,1 -2,2 1,0 1,0 1,0 -1,0 -1,1 -1,2 0,1 1,1 1,1 0,0 0,0 0,0 0,0 0,0 1,0 2,-1 4,-2 4,-2 0,0 0,0 0,0 0,0 0,0 0,-1 0,0 0,0 0,0 0,-1 -1,-2 -1,-2 -1,0 -2,0 -3,0zm-19 -34c1,0 1,0 1,0 -3,1 -4,2 -4,3 0,0 0,0 0,0 1,2 3,3 3,3 1,0 1,0 1,0 0,0 1,-1 2,-1 0,0 0,0 0,0 -2,-4 -2,-6 -2,-7 0,0 0,0 -1,0 0,1 0,1 0,2zm40 -6c-1,2 -2,3 -2,3 0,0 0,0 0,0 0,0 1,0 1,0 0,1 1,2 2,2 1,0 2,-1 2,-1 0,0 0,-1 0,-1 0,0 -1,-1 -3,-3zm3 39c0,1 0,1 0,2 0,1 -1,2 -1,3 0,0 0,1 0,1 0,0 1,0 1,0 0,-1 0,-1 0,-1 0,0 -1,0 -1,0 0,0 0,0 0,0 0,0 0,0 1,0 0,0 0,0 1,1 0,0 0,0 1,0 0,0 0,0 1,0 0,0 0,0 0,0 -1,-2 -2,-3 -3,-3 0,0 0,0 0,0 0,-1 1,-1 1,-1 0,0 0,-1 0,-2 0,0 0,0 0,0 0,0 -1,0 -1,0 0,0 0,0 0,0zm-26 4c-1,0 -3,1 -5,2 0,-1 0,-1 0,-1 0,0 -1,0 -1,1 0,-1 -1,-1 -1,-1 0,0 0,0 0,1 1,0 1,1 1,1 0,0 0,0 1,0 -1,0 -1,0 -1,-1 0,0 0,0 0,0 0,0 0,0 1,0 0,0 0,1 0,1 0,0 1,0 1,0 0,0 0,-1 1,-1 1,0 2,0 3,-2 0,0 0,0 0,0zm21 -19c1,1 1,2 2,2 1,0 1,0 1,0 0,0 0,0 0,0 1,0 1,0 1,0 0,0 0,0 0,0 -1,-1 -2,-2 -3,-2 0,0 -1,0 -1,0zm6 8c0,1 0,1 0,1 0,1 -1,2 -1,4 0,0 0,0 1,0 0,1 0,1 -1,1 0,0 0,0 0,0 1,0 1,0 1,0 0,0 0,0 0,0 0,-1 0,-1 0,-1 0,0 0,0 0,0 0,-1 0,-1 0,-1 0,0 0,0 0,0 0,-1 0,-1 0,-1 0,0 0,-1 1,-2 0,0 0,0 0,-1 0,0 -1,0 -1,0zm0 -23c0,0 0,1 0,2 1,0 1,0 1,0 0,0 0,1 0,1 0,0 -1,0 -1,-1 0,1 0,1 0,1 0,0 0,0 0,0 1,0 1,0 1,0 0,0 0,0 0,0 0,0 0,0 0,0 0,0 0,-1 0,-2 0,-1 -1,-1 -1,-1 0,0 0,0 0,0 0,0 0,0 0,0zm-40 15c1,2 2,4 2,5 0,0 0,0 0,0 -1,0 -1,0 -1,0 0,-2 0,-3 -1,-4 0,0 0,0 0,-1 0,0 0,0 0,0zm39 3c0,0 0,0 0,1 0,0 0,0 0,0 0,0 0,0 0,0 0,0 0,0 0,0 0,0 0,0 0,0 0,0 0,0 0,0 0,0 0,1 0,1 0,0 1,0 1,0 0,-1 0,-1 0,-1 0,0 0,0 0,-1 0,0 0,0 -1,0zm-2 22c1,-2 2,-3 2,-3 0,0 0,0 0,0 0,1 0,1 -1,1 0,1 0,1 1,1 -1,0 -1,0 -2,1 0,0 0,0 0,0zm-35 -20c0,0 0,1 1,2 0,0 0,0 0,0 -1,0 -1,0 -1,0 0,0 0,0 0,-1 0,0 -1,0 -1,-1 0,0 1,0 1,0zm13 -33c0,0 -1,0 -1,0 0,0 0,0 0,0 0,0 1,0 1,0 1,0 1,0 1,0 0,0 0,0 0,0 0,0 -1,0 -1,0zm-13 37c0,0 0,-1 0,-1 0,1 0,2 0,2 0,0 0,0 0,0 0,0 0,-1 0,-1zm-5 -31c0,0 0,0 0,1 0,0 0,0 0,0 0,0 0,0 0,0 0,0 0,0 0,0 0,0 0,0 0,0 0,1 0,1 0,1 0,0 0,0 1,0 0,-1 0,-1 0,-1 -1,0 -1,0 -1,-1zm20 20c0,0 0,1 1,1 0,0 0,0 0,0 0,0 -1,-1 -1,-1 0,0 0,0 0,0 0,0 0,0 0,0zm-22 1c1,0 2,0 2,0 0,0 0,0 0,0 -1,0 -1,0 -2,0 0,0 0,0 0,0zm7 12c0,0 0,1 0,1 0,0 0,0 0,0 0,0 0,0 0,-1 0,0 0,0 0,0 0,0 0,0 0,0zm5 -14c0,0 0,0 1,1 0,0 0,0 0,0 -1,0 -1,0 -1,0 0,0 -1,0 -1,-1 0,0 1,0 1,0zm33 -15c0,0 0,1 0,1 0,0 0,0 1,0 -1,-1 -1,-1 -1,-1 0,0 0,0 0,0zm-39 26c0,0 0,1 0,1 0,0 0,0 0,0 0,0 -1,0 -1,0 1,0 1,0 1,-1 0,0 0,0 0,0zm0 -1c0,0 0,0 0,0 0,0 0,0 -1,0 0,0 0,0 0,0 0,0 1,0 1,-1 0,0 0,1 0,1zm18 -6c1,0 1,0 1,0 0,0 0,-1 0,-1 0,0 0,0 -1,0 0,0 0,0 0,0 0,0 0,0 0,1zm-23 -25c0,1 0,1 0,1 0,0 0,0 0,0 0,0 0,0 0,-1 0,0 0,0 0,0 0,0 0,0 0,0zm9 -3c0,0 0,0 0,0 0,0 0,0 -1,1 0,0 0,0 0,-1 0,0 0,0 0,0 1,0 1,0 1,0zm18 49c0,0 0,1 0,1 0,0 0,0 0,0 0,0 0,0 -1,-1 1,0 1,0 1,0zm17 -30c0,0 0,0 1,0 0,-1 0,-1 0,-1 -1,0 -1,0 -1,0 0,0 0,0 0,1zm-16 13c0,0 0,0 0,0 -1,0 -1,0 -1,0 0,0 0,0 0,0 0,0 0,0 1,0zm-28 -28c0,0 0,1 0,1 0,-1 0,-1 0,-1 0,0 0,0 0,0zm5 28c0,1 0,1 0,1 0,0 0,0 -1,0 0,0 0,0 0,-1 1,0 1,0 1,0zm12 14c0,0 0,0 0,-1 0,0 0,0 0,0 0,0 0,1 0,1zm-12 -9c0,0 0,1 0,1 0,0 0,0 0,0 0,0 0,-1 0,-1 0,0 0,0 0,0zm11 -37c0,0 0,0 0,0 0,0 0,0 0,-1 0,0 0,0 0,0 0,1 0,1 0,1zm-4 25c0,0 0,0 0,0 0,0 0,0 0,0 0,0 0,0 0,0 0,0 0,0 0,0zm-8 -6c0,0 0,0 0,0 0,0 0,0 0,0 0,0 0,0 0,0 0,0 0,0 0,0zm-1 -2c0,1 0,1 0,1 0,0 0,0 0,0 0,0 0,0 0,-1 0,0 0,0 0,0zm0 2c0,1 0,1 0,1 0,0 0,0 0,0 0,0 0,0 0,-1 0,0 0,0 0,0zm-1 -13c0,0 0,0 0,0 0,0 0,0 0,0 0,0 0,0 0,0 0,0 0,0 0,0zm9 50c0,0 0,0 0,0 -1,0 -1,0 -1,0 0,0 0,0 0,0 0,0 0,0 1,0zm-8 -36c0,0 0,0 0,0 0,0 0,0 0,0 0,0 0,0 0,0 0,0 0,0 0,0zm33 29c0,0 0,0 0,0 0,0 0,0 0,0 0,0 0,0 0,0 0,0 0,0 0,0zm-2 3c0,0 0,0 0,0 0,0 0,0 0,0 0,0 0,0 0,0 0,0 0,0 0,0zm-24 -27c0,0 0,0 0,0 0,0 -1,0 -1,0 0,0 0,0 0,0 0,0 1,0 1,0zm33 5c0,0 0,0 0,0 0,0 0,0 0,-1 0,0 0,0 0,0 0,1 0,1 0,1zm-38 8c0,0 0,1 0,1 0,0 0,0 0,0 0,0 0,-1 0,-1 0,0 0,0 0,0zm12 10c0,0 0,0 0,0 0,0 0,-1 0,-1 0,0 0,0 0,0 0,0 0,1 0,1zm-4 -23c0,0 0,0 0,0 0,0 0,0 0,0 0,0 0,0 0,0 0,0 0,0 0,0zm-8 1c0,0 0,0 0,0 -1,0 -1,0 -1,0 0,0 0,0 0,0 0,0 0,0 1,0zm23 24c0,0 0,0 0,1 0,0 0,0 0,0 0,-1 0,-1 0,-1 0,0 0,0 0,0zm14 -40c0,0 0,0 0,0 0,0 0,0 0,0 0,0 0,0 0,0 0,0 0,0 0,0zm-7 45c0,0 0,0 0,0 0,0 0,0 0,0 0,0 0,0 0,0 0,0 0,0 0,0z"/>
   <path class="fil0" d="M327 3c-2,0 -4,1 -5,2 0,0 0,1 0,1 0,0 0,0 0,0 0,1 0,1 0,2 0,0 0,1 0,2 0,3 1,6 2,7 1,2 2,3 4,3 3,0 6,0 9,0 0,0 0,1 0,2 0,0 1,0 1,0 0,0 0,0 0,0 1,0 2,0 2,0 0,0 0,0 0,0 2,0 3,-1 4,-1 0,0 1,0 2,0 1,0 2,-1 3,-2 1,0 1,0 1,0 -2,1 -3,2 -3,2 0,1 0,1 0,1 0,0 1,0 1,1 0,0 1,0 1,0 1,0 1,-1 1,-2 0,0 1,0 1,0 0,1 1,2 3,2 1,-1 2,-1 2,-2 0,0 -1,-1 -2,-2 -2,-1 -3,-2 -3,-3 0,0 0,0 0,0 0,-1 0,-1 0,-2 0,0 -1,0 -1,0 0,1 0,2 0,3 0,0 0,0 0,0 0,0 0,0 -1,0 1,-1 1,-1 1,-1 0,0 0,0 0,0 0,-1 0,-1 0,-1 0,-1 1,-1 1,-1 0,0 0,-1 -1,-1 0,0 0,-1 1,-2 0,0 0,0 0,0 -1,0 -1,1 -1,1 0,0 0,0 0,0 0,0 0,-1 -1,-1 1,0 1,0 1,0 0,-1 0,-1 -1,-1 0,-1 1,-1 1,-2 0,0 0,0 0,0 0,0 0,0 0,0 0,0 0,0 0,0 0,0 0,1 1,1 0,0 0,0 0,0 0,-1 0,-2 0,-2 0,0 -1,0 -1,0 0,0 0,0 0,0 0,0 0,-1 -1,-1 -1,-2 -3,-3 -4,-3 -6,0 -12,0 -18,0zm21 0c0,1 0,2 2,2 1,0 1,0 2,-1 0,0 0,0 0,0 0,0 0,1 -1,1 0,0 0,1 0,1 0,0 1,0 1,0 0,-1 0,-2 0,-2 0,0 1,0 1,0 -1,2 -1,3 -1,5 0,1 0,1 0,1 0,0 0,0 0,0 0,0 0,0 0,0 0,1 0,1 0,1 0,0 0,1 -1,3 0,0 1,0 1,0 0,1 0,1 0,1 0,1 0,1 0,1 0,0 0,0 0,0 0,0 0,0 0,1 2,2 3,3 4,3 3,0 5,0 8,0 2,0 3,0 4,-1 4,-1 5,-4 5,-7 0,-1 1,-1 0,-1 0,-5 -3,-8 -7,-8 -4,0 -8,0 -12,0 -1,0 -1,0 -1,1 0,0 0,0 0,0 0,0 0,0 0,0 0,0 0,-1 0,-1 0,0 0,0 0,0 -2,0 -4,0 -5,0zm-27 3c0,1 0,1 -1,1 0,0 1,1 1,1 0,0 0,-1 1,-1 0,0 0,0 0,0 0,-1 -1,-1 -1,-1 0,0 0,0 0,0zm30 4c0,0 0,0 0,0 0,0 0,-1 0,-1 0,0 0,0 0,0 0,0 0,1 0,1zm-31 0c0,0 1,0 1,0 0,0 -1,0 -1,0 0,0 0,0 0,0 0,0 0,0 0,0 0,0 0,0 0,1 0,0 0,0 0,0 0,1 0,2 0,4 0,0 1,0 1,0 0,0 0,0 0,0 0,0 0,0 0,0 0,0 1,0 1,1 0,0 -1,0 -1,1 1,1 2,1 4,2 0,0 0,0 0,0 0,0 0,0 0,0 -2,-3 -4,-5 -4,-7 0,0 0,0 -1,0 0,0 0,0 0,0 0,0 1,0 1,0 0,-1 0,-1 0,-2 0,0 0,0 -1,0 0,0 0,0 0,0zm30 0c0,0 0,1 1,1 0,0 0,0 0,0 0,-1 0,-1 0,-1 -1,0 -1,0 -1,0 0,0 0,0 0,0zm-29 1c0,0 0,0 0,0 0,0 -1,0 -1,0 0,0 0,0 0,0 0,0 1,0 1,0zm29 1c0,0 0,0 0,0 0,0 -1,0 -1,0 0,0 0,0 0,0 0,0 1,0 1,0zm-29 1c0,0 0,0 0,1 0,0 0,0 0,0 0,0 0,0 0,0 0,0 0,0 0,0 0,-1 0,-1 0,-1zm29 0c0,0 0,0 0,1 0,0 0,0 0,0 0,0 -1,0 -1,0 0,0 0,-1 0,-1 1,0 1,0 1,0zm0 5c0,0 0,-1 0,-1 0,0 0,0 0,1 0,0 0,0 0,0 0,0 0,0 0,0zm1 2c0,0 0,0 0,1 -1,0 -1,0 -1,0 0,-1 0,-1 0,-1 0,0 0,0 1,0zm0 3c-2,0 -3,0 -4,1 0,0 0,0 0,0 0,0 0,-1 -1,-1 0,0 0,0 -1,0 0,0 -1,0 -1,0 -1,0 -3,0 -5,1 0,0 0,0 -1,0 0,0 -1,0 -1,1 0,4 0,8 0,12 0,5 0,9 0,13 1,0 1,0 2,0 0,0 1,0 1,-1 0,0 1,0 1,1 0,-1 0,-1 1,-1 0,0 0,1 0,1 0,-1 0,-1 0,-1 0,0 0,0 0,0 1,0 1,0 1,0 0,0 1,0 2,0 0,-1 1,-1 1,-1 1,-1 3,-3 6,-4 1,0 2,-1 2,-2 0,0 0,-1 0,-1 0,0 0,-1 0,-2 0,0 0,0 0,0 0,0 0,-1 0,-1 0,0 0,0 0,0 0,0 0,0 0,0 0,0 0,0 0,-1 0,0 0,0 0,0 0,-1 1,-1 1,-2 0,0 0,0 -1,0 0,-1 0,-1 0,-1 0,-1 0,-1 0,-1 0,0 0,0 0,-1 0,0 0,0 0,0 0,0 1,1 1,1 0,0 0,-1 0,-1 0,0 0,0 0,0 -1,-1 -1,-2 -2,-2 0,0 1,0 1,0 -1,-1 -2,-2 -2,-3 0,0 0,0 0,0 -2,0 -3,-1 -3,-1 1,0 1,0 2,0 0,0 0,0 0,0 0,0 1,0 1,-1 0,1 0,1 0,1 0,0 0,1 0,1 0,0 0,0 0,-1 1,2 2,3 3,3 0,0 1,0 1,0 0,-2 0,-3 0,-5 -1,0 -1,-1 -1,-1 -1,0 -2,0 -3,0 -1,0 -1,0 -1,0zm-11 1c1,1 1,1 1,1 0,0 0,0 0,0 -1,1 -2,1 -2,1 -1,0 -1,0 -1,0 0,0 0,0 0,0 1,-1 2,-1 2,-2zm4 1c1,0 1,0 1,-1 0,0 0,1 0,1 1,0 1,0 1,-1 0,1 0,1 0,1 0,0 0,0 0,0 0,0 0,0 -1,0 0,0 0,0 0,0 0,0 0,0 -1,0 0,0 0,0 0,0zm9 5c0,0 0,1 0,1 0,0 0,0 0,0 0,0 0,0 0,0 0,-1 0,-1 0,-1zm1 1c0,0 0,1 0,1 0,0 0,0 0,0 0,0 0,-1 0,-1 0,0 0,0 0,0zm1 4c0,0 0,0 0,0 0,0 -1,0 -1,0 0,0 0,0 0,0 0,0 1,0 1,0zm0 7c0,0 0,1 0,2 -4,1 -7,3 -9,6 0,0 0,0 0,0 1,0 2,1 2,1 1,0 2,0 3,0 0,0 0,0 1,0 0,0 0,0 0,0 0,0 0,0 1,-1 1,-1 2,-2 2,-2 0,0 0,0 0,-1 0,0 0,-1 0,-1 0,0 0,-1 0,-1 0,0 0,0 0,0 0,-1 0,-1 0,-1 0,0 0,-1 0,-1 0,0 0,0 0,0 0,0 0,0 0,-1zm0 8c0,0 0,0 0,1 0,0 0,0 0,0 0,0 0,0 0,-1 0,0 0,0 0,0zm-11 0c0,0 -1,1 -1,1 0,0 0,0 0,0 0,0 0,0 0,0 0,0 1,0 1,0 0,0 0,0 0,0 0,0 0,0 0,0 1,0 1,0 1,0 0,0 -1,0 -1,-1zm-2 1c-3,0 -5,1 -5,1 0,0 0,0 0,0 0,0 0,1 1,1 1,-1 3,-1 4,-1 0,-1 0,-1 0,-1zm5 0c0,0 -1,0 -1,1 -1,0 -2,0 -3,0 -4,0 -6,1 -6,2 0,0 0,0 0,0 0,1 0,1 1,2 1,4 3,6 8,6 0,0 1,0 1,0 2,0 3,-1 5,-2 1,-1 1,-1 1,-1 0,0 0,0 0,-1 0,0 0,0 0,0 0,0 0,-1 0,-1 0,0 0,0 0,0 0,0 0,0 0,0 0,0 0,1 0,1 0,0 0,0 0,0 0,0 0,0 -1,1 0,0 0,0 0,0 0,0 0,-1 0,-1 0,0 0,0 0,0 0,0 0,0 0,0 0,0 0,0 0,0 0,0 -1,0 -1,0 0,0 0,0 0,0 0,0 1,-1 1,-1 0,0 0,0 0,0 1,0 1,-1 1,-1 0,-1 0,-1 0,-1 0,0 0,0 0,0 0,0 0,0 0,0 0,0 0,0 1,0 0,0 -1,-1 -1,-1 0,0 0,0 0,0 1,0 1,-1 2,-2 0,0 -1,0 -1,0 -2,0 -3,1 -3,1 0,0 0,0 0,0 -2,-1 -4,-1 -4,-2 0,0 0,0 0,0zm6 2c0,0 0,0 1,0 0,0 0,0 0,0 -1,0 -1,0 -1,0zm2 0c-1,2 -1,3 -1,4 0,1 0,1 0,1 0,0 0,0 1,0 0,-2 0,-3 0,-5 0,0 0,0 0,0 0,0 0,0 0,0zm-2 1c0,1 0,1 0,1 0,0 0,0 0,0 0,0 0,0 0,-1 0,0 0,0 0,0z"/>
   <path class="fil0" d="M453 2c0,0 -1,1 -1,2 0,0 0,0 0,0 0,0 0,0 0,0 0,0 0,0 0,1 0,0 0,0 0,0 0,0 0,0 0,0 0,1 0,1 0,1 0,0 0,1 0,2 0,0 0,0 0,0 0,0 0,0 0,0 0,0 0,0 0,0 0,1 0,1 0,2 0,0 0,0 0,0 1,1 1,2 1,2 1,2 2,3 4,4 0,0 0,0 1,-1 0,0 0,1 1,1 0,0 0,0 0,0 0,0 1,-1 1,-1 0,1 0,1 1,1 0,0 0,0 0,0 0,0 1,0 1,-1 0,1 0,1 0,1 1,0 1,0 1,-1 0,-1 0,-3 0,-5 0,-5 -3,-7 -8,-8 -1,0 -1,0 -1,1 0,0 0,-1 -1,-1 0,0 0,0 0,0zm34 0c-3,0 -7,3 -12,9 0,0 0,0 0,1 1,1 1,2 1,2 1,0 2,0 2,0 0,-1 0,-1 1,-1 0,0 0,0 0,0 0,0 1,0 3,0 0,0 0,0 0,0 1,-1 1,-1 3,-1 1,0 2,-1 4,-4 0,0 0,0 -1,0 0,-1 1,-1 1,-1 0,-1 -1,-2 -1,-2 0,0 0,0 0,-1 0,0 0,0 0,0 1,0 1,0 1,-1 0,0 0,0 0,-1 0,0 0,0 0,0 0,1 0,1 -1,2 0,0 0,-1 0,-2 -1,0 -1,0 -1,0zm-36 1c0,0 0,0 0,0 0,0 0,0 0,0 0,0 0,0 0,0 0,0 0,0 0,0zm40 0c0,0 0,0 -1,1 1,0 1,1 1,1 0,1 -1,1 -1,2 0,3 2,5 5,6 1,0 1,-1 1,-2 0,-4 -2,-7 -5,-8zm-41 0c-4,1 -5,4 -5,7 0,2 0,4 0,6 0,1 0,1 0,1 0,0 0,0 0,0 2,-1 3,-1 3,-2 0,0 0,0 0,0 2,-1 3,-3 3,-5 -1,0 -1,0 -1,0 0,0 1,0 1,-1 0,0 0,1 0,1 0,0 0,0 0,0 0,-1 0,-1 0,-2 -1,1 -1,2 -1,2 0,0 0,0 -1,0 1,-1 1,-2 1,-4 0,0 0,0 0,0 0,-1 0,-2 0,-2 0,0 0,0 0,0 0,0 0,0 0,0 0,0 0,0 0,0 0,0 0,0 0,0 0,-1 0,-1 0,-1zm39 2c0,0 0,0 0,0 0,0 0,0 1,-1 0,0 0,0 0,0 -1,0 -1,0 -1,0 0,0 0,1 0,1zm-38 -1c0,0 0,1 -1,2 1,1 1,2 1,2 0,-1 0,-2 0,-2 0,-1 0,-1 0,-1 0,0 0,-1 0,-1zm38 3c0,0 1,0 1,0 0,0 0,-1 0,-1 -1,0 -1,0 -1,0 0,0 0,1 0,1zm0 1c-1,2 -2,3 -2,3 1,2 2,2 3,2 0,0 0,0 0,0 0,0 0,0 0,0 1,0 1,0 1,-1 0,0 0,0 0,0 0,0 0,0 0,0 0,0 0,-1 0,-1 -1,-1 -1,-2 -1,-3 0,0 -1,0 -1,0 0,0 0,0 0,0zm-36 2c0,0 0,0 0,0 0,0 0,0 0,0 0,0 0,0 0,0 0,0 0,0 0,0zm-1 1c0,1 0,1 -1,1 0,0 0,1 1,1 -2,1 -3,2 -4,3 0,1 0,2 1,2 1,0 1,0 1,0 0,0 0,0 1,0 0,0 0,-1 1,-1 0,0 0,0 0,0 0,0 0,0 2,0 0,0 0,0 1,-1 0,0 0,0 0,0 0,0 0,1 0,1 -1,0 -1,1 -1,1 -1,0 -2,0 -3,0 0,0 0,0 -1,0 0,0 0,0 -1,0 -1,0 -1,0 -1,0 -1,0 -1,0 -1,0 0,0 0,0 -1,0 -1,0 -1,0 -1,1 0,3 0,7 0,10 0,4 0,7 0,10 0,0 0,0 1,0 0,0 0,0 0,0 0,0 1,0 1,0 0,0 0,0 0,0 0,0 0,0 0,0 1,0 1,0 2,0 0,0 0,0 1,0 2,0 3,-3 5,-7 -1,-1 -1,-1 -1,-1 0,-1 0,-1 1,-1 0,0 -1,0 -1,0 0,0 0,0 0,0 0,0 -1,0 -1,0 0,-1 0,-1 1,-1 -1,0 -1,0 -1,-1 0,0 0,0 0,-1 0,0 0,0 0,0 0,0 0,0 0,0 0,0 0,0 0,0 1,1 1,2 1,2 0,0 0,-1 0,-1 0,0 0,0 0,0 0,0 0,0 0,0 0,-1 0,-1 0,-2 0,0 0,0 0,0 0,-2 -1,-2 -1,-2 0,0 0,0 -1,0 0,0 0,0 0,0 0,0 0,0 0,0 0,0 0,0 0,0 0,0 -1,-1 -4,-3 0,0 0,0 0,0 0,0 0,0 0,0 0,0 1,0 2,1 1,0 1,0 2,0 0,0 1,-1 1,-1 0,0 1,1 2,3 0,0 0,1 0,1 0,0 0,0 0,0 0,2 0,4 1,8 0,3 2,4 4,4 0,0 0,0 0,0 1,0 1,0 1,-1 0,1 1,1 2,1 1,0 1,0 1,-1 0,0 0,1 0,1 3,-1 5,-2 7,-3 0,0 0,0 0,0 0,0 0,1 -1,1 0,0 0,0 0,0 0,0 0,0 1,0 0,0 0,0 0,0 1,1 1,1 2,1 0,1 0,1 0,1 -2,0 -2,-1 -2,-1 -2,0 -2,1 -2,1 -1,0 -1,0 -1,0 -1,0 -3,1 -4,1 -2,0 -3,0 -4,0 -1,0 -1,0 -1,0 -1,-1 -3,-2 -4,-4 0,0 0,0 0,0 0,0 0,0 0,0 0,0 0,0 0,0 0,1 -1,2 -2,4 0,0 0,0 0,0 0,0 1,0 1,0 0,0 0,0 0,0 0,0 0,0 1,1 -1,0 -1,0 -2,0 0,0 0,0 0,0 -3,0 -4,1 -4,2 0,0 0,0 0,0 1,1 2,2 3,3 0,0 1,0 1,-1 1,0 2,0 3,-1 0,0 0,1 0,2 2,1 2,1 2,2 0,0 1,-1 1,-1 0,0 0,0 1,0 -1,1 -1,2 -1,4 0,0 0,0 0,0 0,3 1,5 1,5 0,0 0,1 0,1 1,1 2,1 2,1 1,0 1,-1 1,-1 0,-3 0,-7 0,-11 0,0 1,-1 4,-4 0,0 0,0 1,0 0,1 4,6 12,16 1,0 1,0 2,-1 1,-2 2,-4 3,-4 0,0 -1,0 -1,-1 0,0 1,0 1,0 0,0 0,0 -1,0 0,-1 1,-1 1,-1 0,0 0,0 0,0 -1,0 -1,0 -1,0 0,0 0,1 -1,1 0,0 0,0 0,0 0,-1 0,-1 0,-1 0,0 0,0 0,-1 0,0 0,0 0,0 0,-1 0,-1 -1,-2 1,0 1,-1 2,-1 0,0 0,0 0,0 0,0 0,1 0,1 0,0 0,1 0,2 0,0 1,0 1,0 0,0 -1,0 -1,-1 1,0 1,0 1,0 -1,0 -1,-1 -1,-1 0,0 0,0 0,0 0,-1 -1,-2 -1,-2 0,0 0,0 0,-1 0,0 0,0 0,0 0,0 0,0 0,0 0,0 0,0 0,0 0,0 -1,0 -1,0 0,0 0,-1 0,-1 -2,-4 -5,-6 -7,-6 0,0 0,0 0,0 0,0 1,0 1,0 0,-1 -1,-2 -3,-4 0,0 0,0 -1,0 0,1 0,2 -1,2 0,-1 1,-2 1,-3 0,0 0,0 0,0 0,0 0,0 0,0 0,0 1,-1 1,-2 0,-1 0,-2 -1,-3 0,0 0,0 0,0 0,0 0,0 -1,0 0,0 0,0 0,0 1,0 1,0 1,0 0,0 0,0 0,-1 0,0 0,0 0,0 0,0 0,0 0,0 0,0 0,-1 0,-1 0,0 1,1 1,1 0,0 0,-1 0,-1 0,0 0,0 -1,0 0,-1 1,-1 1,-1 0,0 0,0 0,-1 0,0 0,0 -1,0 0,1 0,1 0,1 0,0 0,0 -1,0 0,0 0,0 0,0 1,0 1,0 1,0 0,0 0,0 0,0 0,0 0,-1 0,-1 0,0 0,0 0,-1 0,0 0,0 0,0 0,1 -1,1 -1,1 0,-1 -1,-1 -1,-1 0,0 1,0 1,0 1,0 1,-1 2,-2 0,0 0,0 0,0 0,0 0,1 1,1 0,0 1,0 1,0 0,0 0,0 0,0 0,0 0,0 0,1 -1,0 -1,2 -1,5 0,0 0,0 0,0 0,0 0,1 -1,2 0,0 1,0 1,0 0,1 -1,1 -1,2 1,2 2,2 2,3 2,1 4,2 7,3 0,-1 0,-1 0,-1 0,0 0,0 0,1 0,0 0,-1 1,-1 0,0 0,0 1,0 0,0 0,0 0,0 0,0 0,0 0,0 0,0 1,0 2,-1 -2,-2 -3,-4 -5,-6 0,0 0,0 0,0 1,0 4,-4 12,-11 0,-1 0,-2 -1,-3 0,0 0,0 0,0 1,0 1,1 1,1 0,0 0,0 0,0 0,0 0,0 0,0 0,0 1,0 1,0 0,0 0,0 0,0 0,0 0,0 0,0 0,0 1,0 1,0 0,-1 0,-1 0,-1 0,0 0,0 0,0 -1,0 -1,0 -1,0 -1,0 -2,0 -2,-1 0,0 0,0 0,0 0,0 0,0 0,0 0,1 0,1 -1,1 0,0 0,0 0,0 -2,0 -4,-1 -4,-1 0,0 0,0 0,0 -2,0 -3,0 -3,1 0,0 -1,0 -1,0 0,0 0,0 0,0 0,0 0,0 0,0 0,0 0,0 0,0 0,1 -1,1 -1,1 0,0 -1,0 -1,0 0,0 0,0 0,0 0,0 1,0 1,0 0,0 0,-1 0,-1 0,0 -1,0 -2,1 0,0 0,0 0,0 0,0 0,0 1,0 0,0 0,0 0,0 0,0 0,0 0,0 0,0 -1,1 -2,1 0,0 0,0 0,0 0,0 0,0 0,-1 0,0 0,0 0,0 0,0 0,1 -1,1 0,0 0,-1 0,-1 0,0 -1,0 -1,0 0,0 0,0 0,1 0,0 0,0 0,0 -1,0 -1,-1 -2,-1 0,0 0,0 0,0 0,0 0,0 0,0 0,0 0,0 1,0 0,-1 -1,-2 -2,-3 0,0 0,0 0,0 0,0 0,0 -1,0 0,0 0,0 0,0 0,0 0,0 0,0 0,1 -1,2 -2,3 0,1 0,1 0,1 0,0 0,0 0,0 0,0 0,0 0,0 0,0 0,0 0,0 0,0 -1,0 -1,0 -1,0 -3,2 -7,6 0,0 0,0 0,0 0,-2 0,-3 0,-4 0,-1 0,-1 -1,-1 0,0 0,0 0,0 0,0 -1,0 -1,0 0,0 0,0 -1,0 0,0 0,0 0,0 -2,0 -3,0 -5,-1 0,-1 -2,-2 -3,-5 0,0 0,0 0,0zm0 2c0,1 0,1 0,1 -1,0 -1,0 -1,0 0,0 0,0 0,-1 0,0 0,0 1,0zm33 1c0,0 1,0 1,-1 0,1 0,1 1,1 0,0 0,0 0,0 -1,0 -2,0 -2,0 0,0 0,0 0,0zm-12 2c0,0 0,0 -1,0 0,0 0,0 0,0 0,0 0,0 0,0 0,0 1,0 1,0zm4 2c0,-1 0,-1 0,-1 0,0 1,0 1,0 -1,1 -1,1 -1,1zm-17 0c0,0 0,0 0,0 0,0 0,0 0,0 0,0 0,0 0,0 0,0 0,0 0,0zm-6 1c0,0 0,0 0,0 -1,0 -1,1 -1,2 0,0 0,-1 0,-1 0,-1 0,-1 0,-1 0,0 0,0 1,0zm18 3c1,0 1,0 1,0 0,0 0,-1 0,-1 0,0 0,0 -1,0 0,0 0,1 0,1zm-1 2c1,0 1,0 1,0 0,0 0,0 0,0 -1,0 -1,0 -1,0 0,0 0,0 0,0zm-18 0c0,0 0,1 0,1 0,0 0,0 -1,-1 1,0 1,0 1,0zm-1 1c0,0 0,0 0,0 0,0 0,0 0,0 0,0 0,0 0,0 0,0 0,0 0,0zm0 1c0,0 0,0 0,0 0,0 0,0 0,0 0,0 0,0 0,0 0,0 0,0 0,0zm1 0c0,0 0,0 0,0 0,0 0,0 0,0 0,0 0,0 0,0 0,0 0,0 0,0zm19 1c0,1 0,1 0,2 0,0 0,0 0,0 0,0 0,0 0,0 0,-1 0,-1 0,-2 0,0 0,0 0,0zm0 2c0,0 0,0 0,0 0,0 0,0 0,0 0,0 0,0 0,0 0,0 0,0 0,0zm4 7c0,0 0,0 0,0 0,0 0,0 0,0 2,1 3,1 3,2 0,0 1,0 1,-1 0,1 0,1 0,1 0,0 0,0 0,0 0,1 1,2 4,3 0,0 0,0 0,0 0,0 0,0 0,0 0,0 0,1 0,1 0,0 0,1 0,1 1,0 1,0 1,0 0,1 1,2 1,2 0,1 0,1 0,2 0,0 0,0 0,0 0,0 0,0 0,0 0,1 0,1 0,1 0,1 0,1 0,2 0,1 0,1 0,2 0,0 -1,0 -1,0 0,1 1,1 1,2 0,0 0,0 -1,0 0,0 1,0 1,1 0,0 0,0 0,0 0,0 -1,0 -1,0 0,-1 0,-2 0,-2 -1,0 -1,0 -1,0 -1,1 -2,3 -3,4 3,3 5,5 9,5 0,0 0,0 0,0 1,0 2,0 3,0 0,-1 0,-1 0,-1 -2,0 -4,-1 -7,-3 -1,0 -1,0 -1,0 0,0 0,0 0,0 0,-1 1,-2 1,-3 0,0 0,0 0,0 0,1 0,2 1,3 1,0 1,0 1,0 1,1 2,2 4,2 0,0 1,0 1,0 0,0 1,0 1,0 0,0 0,0 0,0 2,0 4,-1 4,-5 0,-1 0,-2 0,-2 0,-3 -3,-8 -11,-17 -1,0 -3,0 -8,1 -1,-1 -2,-1 -3,-1zm-2 0c0,1 0,1 0,1 0,0 0,0 -1,0 0,0 0,0 0,-1 1,0 1,0 1,0zm-19 4c1,-1 2,-2 3,-2 0,0 0,0 0,0 0,0 0,0 0,0 0,0 0,0 0,0 0,1 -1,1 -3,2 0,0 0,0 0,0 0,0 0,0 0,0zm10 -1c0,0 0,0 0,0 0,0 0,0 -2,1 0,0 0,0 0,-1 1,0 1,0 2,0 0,0 0,0 0,0zm-9 2c0,0 0,0 0,0 0,0 0,0 -1,0 0,0 0,0 0,0 1,0 1,0 1,0zm-11 1c0,-1 0,-1 0,-1 0,0 0,0 0,1 0,0 0,0 0,0 1,0 1,0 2,0 0,0 0,1 0,1 1,0 1,0 1,0 0,-1 0,-1 0,-2 -1,0 -2,0 -3,1zm37 0c0,0 -1,1 -1,1 0,-1 0,-1 0,-1 0,0 0,0 1,0zm-37 1c0,0 0,0 0,0 0,4 0,7 0,11 0,2 0,3 1,3 0,0 0,0 0,0 1,0 1,0 1,0 0,0 0,0 1,0 0,0 0,0 0,0 1,0 1,0 2,0 0,0 1,0 1,-1 0,1 0,1 0,1 0,0 0,0 0,0 2,0 4,-2 6,-4 0,0 0,0 0,0 0,-1 0,-2 0,-2 0,0 0,0 0,-1 0,1 0,1 0,1 0,0 0,0 0,-1 0,0 0,0 0,0 0,-1 0,-1 0,-1 0,0 1,0 1,0 0,0 0,0 0,0 0,1 0,1 0,1 0,0 0,0 0,0 1,0 1,0 1,0 -1,0 -1,-1 -1,-2 -1,-2 -2,-3 -3,-3 0,0 0,0 0,1 0,0 0,0 0,0 0,0 0,0 0,0 0,-1 -2,-2 -6,-3 0,0 0,0 0,0 0,0 -1,0 -3,0 0,0 -1,0 -1,0zm37 1c0,0 0,0 0,0 0,0 0,0 -1,0 0,0 0,0 0,0 1,0 1,0 1,0zm1 0c0,0 0,0 0,1 -1,0 -1,0 -1,0 0,-1 0,-1 0,-1 0,0 0,0 1,0zm0 7c0,0 0,-1 1,-1 0,0 0,1 0,1 0,0 0,0 0,0 -1,0 -1,0 -1,0zm-25 0c0,0 0,0 0,1 0,0 0,0 0,0 0,0 0,0 0,0 0,0 0,-1 0,-1zm0 2c-3,2 -4,4 -4,4 0,0 0,1 2,1 0,0 0,0 1,0 0,0 0,0 0,0 0,0 0,0 0,0 0,0 1,0 1,0 0,0 0,0 0,-1 1,1 1,1 1,1 0,0 1,0 1,0 0,-1 1,-1 1,-1 0,-1 -1,-1 -1,-1 0,-1 -1,-2 -2,-3 0,0 0,0 0,0 0,0 0,0 0,0zm0 6c0,0 0,0 0,1 0,0 0,0 0,1 0,0 0,0 0,0 1,0 3,-1 4,-3 0,0 -1,-1 -1,-1 0,0 0,0 0,0 -1,1 -2,1 -3,2zm-5 -1c-2,0 -4,0 -6,0 0,0 0,0 -1,0 0,1 0,1 0,1 1,0 1,0 2,0 0,0 0,0 0,0 0,0 -1,0 -1,0 0,0 0,0 0,0 1,2 3,3 6,3 1,0 1,0 2,0 1,0 2,0 3,-1 0,0 0,0 0,-1 0,0 0,0 0,0 0,-1 0,-1 0,-1 -1,0 -1,0 -1,0 -1,0 -2,0 -2,-1 0,0 0,1 0,1 0,0 0,0 0,0 0,0 0,0 0,1 0,0 0,0 0,0 0,-1 -1,-1 -3,-1 0,0 0,0 0,0 1,0 1,0 2,0 0,0 0,0 0,-1 -1,0 -1,0 -1,0zm-3 1c0,0 0,0 0,0 0,0 0,0 0,0 0,0 0,0 0,0 0,0 0,0 0,0zm-1 0c0,0 0,0 0,0 0,0 -1,0 -1,0 0,0 0,0 0,0 0,0 1,0 1,0zm1 0c0,0 0,0 0,0 0,0 -1,0 -1,0 0,0 0,0 0,0 0,0 1,0 1,0z"/>
   <path class="fil0" d="M550 13c0,-1 0,-1 0,-1 0,0 0,0 -1,0 0,0 0,0 -1,0 0,0 0,0 -1,0 0,0 0,0 0,0 -1,0 -1,0 -1,0 -1,0 -2,0 -2,-1 -1,0 -1,0 -1,0 0,0 0,1 0,1 0,0 -1,0 -1,0 -1,0 -2,0 -3,0 -1,0 -2,-1 -2,-1 -2,0 -3,1 -4,1 0,0 0,0 0,0 0,0 0,0 0,-1 -1,0 -1,0 -1,1 -1,0 -2,-1 -2,-1 -1,0 -2,1 -5,2 0,0 0,-1 0,-1 -1,0 -2,1 -2,1 0,0 0,0 -1,0 0,0 0,0 0,0 -1,0 -1,1 -2,3 -3,7 -4,12 -4,15 0,0 0,1 0,1 0,1 0,2 0,2 0,1 0,1 0,1 0,0 0,0 0,0 0,-1 0,-1 0,-1 -1,-1 -1,-1 -1,-2 -1,0 -1,0 -1,0 0,1 0,1 0,2 0,0 0,0 0,0 -1,1 -1,2 -2,4 0,0 0,0 0,0 0,0 1,0 1,0 0,-2 1,-2 2,-2 0,0 0,0 -1,1 1,1 2,2 4,2 0,0 0,-1 0,-1 1,0 3,1 4,1 0,0 0,0 0,-1 0,0 1,0 1,1 1,-1 2,-1 2,-1 0,0 1,0 1,-1 1,0 1,1 1,1 0,0 0,0 1,-1 0,1 0,1 0,1 0,0 0,-1 0,-1 0,0 1,0 1,0 0,0 0,0 0,0 2,0 3,0 3,-1 1,0 2,-1 2,-2 0,0 0,0 0,0 -1,0 -1,0 -2,0 3,-8 4,-12 4,-13 0,0 1,0 1,0 2,6 3,8 3,8 0,0 0,0 0,0 0,0 0,-1 1,-2 -1,0 -1,0 -1,0 0,0 0,0 0,-1 0,0 0,0 1,0 0,0 -1,0 -1,0 0,0 1,0 1,0 -1,-1 -1,-1 -1,-1 0,-1 1,-1 1,-2 0,0 0,0 -1,0 0,0 0,-1 0,-1 0,0 0,-1 0,-1 0,0 0,0 0,0 0,0 0,0 0,-1 0,1 1,1 1,1 0,0 0,0 0,-1 0,0 0,0 0,0 -1,-1 -1,-1 -2,-1 1,-1 1,-1 1,-1 -1,-1 -1,-2 -2,-3 0,0 0,0 0,0 -2,0 -3,0 -3,-1 1,0 1,0 2,0 0,0 0,0 0,0 0,0 1,0 1,0 0,0 0,0 0,1 0,0 0,0 0,0 0,0 0,0 0,0 1,1 2,3 4,3 0,0 0,0 1,0 0,0 0,0 1,0 0,-1 0,-1 0,-1 -1,0 -1,0 -1,0 0,0 0,0 0,-1 0,0 1,0 1,0 0,1 0,1 1,1 0,0 0,0 0,0 -1,4 -2,7 -2,11 0,0 0,0 0,2 2,4 5,7 9,7 0,-1 0,-1 0,-1 0,0 1,1 1,1 2,0 4,-1 6,-2 0,-1 0,-2 -2,-6 -1,-3 -3,-9 -5,-16 -1,1 -1,1 -2,1 0,0 0,0 0,0 0,-1 -1,-1 -2,-1 0,0 0,-1 0,-1 1,1 1,1 2,1 0,0 0,0 0,0zm-36 26c-1,0 -2,0 -2,0 -3,7 -5,12 -5,15 0,0 0,0 0,1 0,1 1,3 2,4 1,-1 2,-1 3,-3 0,0 0,0 0,0 0,0 0,-1 1,-2 0,-2 1,-3 1,-3 0,0 0,-1 0,-1 0,0 1,-1 1,-2 0,0 0,-1 0,-1 0,0 0,0 0,0 0,0 0,0 0,-1 0,0 0,0 0,-1 0,0 0,0 0,0 0,-1 0,-2 0,-3 0,0 0,0 0,0 0,3 1,5 2,5 0,0 0,0 0,0 2,-1 2,-2 2,-3 0,0 0,0 1,0 0,0 0,1 0,1 0,0 -1,1 -3,2 0,0 0,0 0,0 0,1 0,1 0,1 0,1 0,2 0,3 0,0 0,0 0,0 0,1 -1,2 -1,2 0,1 0,1 1,1 -1,0 -1,2 -1,4 0,0 -1,0 -1,0 0,0 0,0 0,0 -1,1 -1,3 -1,3 0,0 0,0 0,0 0,0 -1,-1 -1,-1 0,0 0,0 0,-1 0,0 0,0 0,0 0,0 0,0 0,0 0,0 0,0 0,0 0,0 0,0 0,0 0,-1 0,-1 0,-1 0,0 0,0 0,0 0,0 0,0 0,-1 -1,1 -2,2 -3,2 0,0 0,0 0,1 0,0 2,1 3,2 1,0 1,-1 1,-1 0,1 0,1 0,1 1,0 2,0 2,0 5,0 9,-5 12,-13 3,0 7,0 10,0 1,0 1,-1 2,-1 0,0 0,0 0,0 -1,0 -1,-1 -1,-1 0,0 0,0 0,0 0,0 0,0 1,0 0,0 0,0 0,0 0,-1 -1,-1 -1,-1 0,0 0,-1 1,-1 0,0 0,0 0,0 -1,0 -1,0 -1,0 0,0 0,1 0,1 0,0 0,0 0,1 0,0 0,0 -1,0 0,0 0,0 0,0 0,0 0,0 0,0 0,0 0,0 1,0 0,-1 0,-1 0,-1 -1,0 -1,0 -1,0 0,0 -1,0 -1,0 0,0 0,0 0,0 0,0 1,-1 1,-1 0,0 0,0 0,0 1,0 1,0 1,-1 0,0 0,-1 0,-1 0,0 0,0 0,0 0,0 0,0 0,0 0,0 1,0 1,0 0,0 0,-1 -1,-1 0,0 0,0 0,0 1,0 1,-1 2,-2 0,0 -1,0 -1,0 -2,0 -3,1 -3,1 0,0 0,0 0,0 -2,-1 -4,-1 -4,-2 0,0 -1,1 -1,1 -1,0 -2,0 -3,0 -4,1 -6,1 -6,2 0,0 0,0 0,0 0,0 0,0 0,0 2,-2 3,-2 5,-2 0,0 0,-1 0,-1 -2,1 -4,1 -5,1 0,0 0,0 0,0 0,0 0,0 0,0 -5,0 -8,-1 -9,-1 0,0 0,0 0,0zm45 -3c0,0 -1,1 -3,2 0,0 -1,-1 -1,-1 0,0 -1,1 -1,1 0,0 0,-1 0,-1 -1,1 -1,1 -2,1 0,0 0,0 0,0 -2,0 -3,0 -5,-1 0,1 0,1 0,1 0,0 0,0 -1,-1 0,1 -1,1 -2,1 0,0 -1,0 -1,0 -1,0 -1,0 -2,0 0,0 0,0 0,1 0,0 0,0 0,0 0,0 0,0 1,0 0,0 0,0 0,0 -1,2 -1,4 -2,6 0,2 0,4 1,4 1,0 2,0 4,0 1,3 2,5 2,5 1,0 2,0 2,0 1,0 3,-1 5,-4 0,0 0,-1 0,-1 1,0 1,-1 1,-2 0,0 0,0 1,0 0,0 0,0 0,0 0,1 0,2 -1,3 -2,2 -3,4 -3,4 0,0 0,0 0,0 0,0 0,0 0,0 0,0 0,0 0,0 0,1 1,1 3,1 0,0 0,0 0,0 1,-1 2,-1 2,-2 0,0 0,1 1,1 0,0 0,0 0,0 0,1 1,2 2,2 1,0 2,0 3,-1 0,0 0,1 0,1 0,-1 0,-1 0,-1 0,1 0,1 0,1 0,0 0,0 1,0 0,0 0,0 0,-1 -1,-1 -2,-1 -2,-1 1,0 2,0 3,0 0,0 0,0 0,0 1,0 1,0 1,0 0,-2 -2,-6 -3,-10 -2,-4 -2,-6 -3,-6 0,-1 0,-1 0,-1 0,0 0,0 0,0 0,0 0,-1 0,-1 0,0 0,0 -1,0zm-25 -34c-5,0 -9,2 -11,8 0,0 0,1 0,1 0,0 1,0 1,0 1,0 2,-1 2,-1 0,0 0,0 0,0 2,0 3,0 4,-1 0,0 1,1 3,1 1,-1 2,-2 3,-3 0,0 0,0 0,0 -2,2 -3,3 -3,3 0,0 0,0 0,0 0,0 1,1 1,1 1,0 1,0 1,0 1,0 1,-1 1,-2 1,0 1,0 1,0 0,1 1,2 3,2 2,-1 2,-1 2,-1 0,0 0,0 0,-1 0,0 -1,-1 -2,-2 -2,-1 -3,-2 -3,-3 0,0 0,0 0,0 0,0 0,-1 0,-1 0,0 0,0 -1,0 0,0 0,1 0,2 0,0 0,0 0,0 0,0 0,0 0,0 0,0 0,-1 0,-1 0,0 0,0 0,0 0,0 0,0 0,-1 0,0 1,-1 1,-1 0,0 0,0 -1,0 0,0 0,0 0,0 0,0 0,0 0,0 0,0 -1,0 -1,0 0,0 0,0 1,0 0,0 0,0 0,0 -1,0 -1,0 -2,0zm14 54c0,0 0,0 0,0 0,0 1,0 1,0 0,0 0,1 0,1 2,3 4,5 7,5 1,0 1,0 2,0 1,0 1,-1 1,-2 0,0 0,0 0,-1 0,0 0,0 0,0 0,1 1,2 1,2 2,0 4,-1 5,-4 0,0 0,0 0,-1 0,1 -1,1 -1,1 -1,0 -1,0 -1,0 0,0 0,-1 0,-1 0,0 -1,1 -1,1 0,0 0,0 0,-1 -1,1 -2,1 -3,1 -1,-1 -1,-1 -1,-2 -3,1 -4,1 -4,1 0,0 0,0 -1,0 0,0 0,0 0,0 0,0 0,0 -1,0 0,0 0,0 0,0 0,0 0,-1 -1,-1 0,0 0,0 -1,0 0,0 -1,1 -2,1zm-6 -27c0,0 0,0 0,0 -1,1 -1,2 -1,2 0,1 0,1 0,1 0,1 0,1 0,1 0,1 0,1 0,1 -1,0 -2,0 -4,0 -2,1 -4,2 -5,4 0,0 0,0 0,0 1,0 2,1 2,1 1,0 2,0 3,0 0,0 1,0 1,0 0,0 0,0 0,0 2,-1 3,-2 3,-2 2,0 3,1 3,1 0,0 0,0 1,0 1,-1 2,-1 2,-2 0,0 -2,-2 -5,-6 0,0 0,-1 0,-1 0,0 0,0 0,0 0,0 0,0 0,0 0,0 0,0 0,0zm-4 -28c0,1 0,1 -1,1 0,0 1,0 1,1 0,0 0,0 0,1 0,0 0,0 0,0 0,0 0,0 0,1 0,0 0,0 0,0 4,3 7,5 8,5 0,0 1,0 1,0 0,0 0,0 1,0 0,0 0,0 0,0 1,0 1,0 2,0 0,0 0,0 0,0 -2,-6 -6,-9 -12,-9zm19 44c0,0 1,0 1,0 0,1 -1,2 -1,2 1,1 1,2 1,3 0,1 0,1 0,1 0,0 0,0 0,0 0,0 0,-1 -1,-2 0,0 0,0 0,0 0,0 0,0 0,0 0,0 0,-1 0,-1 0,0 0,0 0,0 0,0 0,-1 0,-2 0,0 0,0 0,-1 0,0 0,0 -1,0 0,0 0,-1 1,-1 -1,-1 -2,-2 -2,-2 -1,-1 -2,-2 -3,-3 0,0 0,0 0,0 -1,0 -1,0 -1,0 1,0 1,0 1,0 1,0 1,0 1,0 0,1 0,1 1,2 1,0 1,0 1,-1 0,0 0,0 0,0 1,2 1,2 2,2 0,0 0,1 0,1 0,0 0,0 1,1 0,0 0,0 0,1 0,-1 0,-1 -1,-1 0,0 0,0 0,1zm-42 9c0,0 0,0 0,0 -1,2 -2,3 -2,3 0,0 1,1 1,1 0,0 1,-1 1,-4 0,0 0,0 0,0 0,0 0,0 0,0zm11 -41c1,0 1,0 1,0 0,1 0,1 0,1 -1,0 -2,0 -2,0 0,0 0,0 0,0 0,0 0,0 0,0 1,-1 1,-1 1,-1zm4 26c0,0 -1,0 -1,0 0,0 0,0 0,0 0,0 0,0 0,0 1,0 1,0 1,0 0,0 0,0 0,0 0,0 0,0 1,0 0,0 0,0 0,0 0,0 0,0 -1,0 0,0 0,0 0,0zm11 -8c0,0 0,0 1,0 1,1 1,1 1,1 0,0 0,0 0,1 -1,-1 -1,-1 -2,-1 0,0 0,-1 0,-1zm1 -10c0,0 0,1 0,1 0,0 1,0 1,-1 0,0 0,0 0,0 0,0 0,0 -1,0 0,0 0,0 0,0 0,0 0,0 0,0zm0 5c0,1 0,2 0,2 0,0 0,0 0,0 0,-1 0,-1 0,-2 0,0 0,0 0,0 0,0 0,0 0,0zm-26 21c0,0 0,1 -1,2 0,0 0,0 0,0 1,0 1,0 1,0 0,0 0,-1 0,-1 0,0 0,0 0,-1zm14 -34c1,0 1,0 1,0 0,0 1,0 1,0 0,0 0,0 0,0 0,0 0,0 1,0 -1,0 -1,1 -1,1 0,0 0,0 0,0 0,0 0,-1 0,-1 -1,0 -1,0 -2,0 0,0 0,0 0,0zm21 43c0,0 0,0 0,0 0,0 1,0 1,0 -1,0 -1,0 -1,0 0,0 -1,0 -1,0 0,0 0,0 -1,0 0,0 0,0 0,0 1,0 1,0 2,0zm-9 -32c0,0 0,0 0,0 0,0 0,-1 0,-2 0,0 0,0 0,0 0,1 0,1 0,2zm22 32c0,0 1,0 1,0 0,0 0,0 0,0 0,0 0,0 0,0 -1,0 -1,0 -1,0zm-48 -5c-1,0 -1,0 -1,1 0,0 0,0 0,0 0,0 0,0 0,0 1,0 1,0 1,0 0,-1 0,-1 0,-1zm26 -16c0,1 0,1 1,2 0,0 0,0 -1,0 0,-1 0,-1 0,-1 0,0 0,-1 0,-1 0,0 0,0 0,0zm16 21c0,1 0,1 0,1 0,0 0,0 0,0 0,0 0,0 0,0 0,0 0,-1 0,-1 0,0 0,0 0,0zm-3 -10c1,0 1,0 1,0 0,0 0,0 0,0 0,0 0,1 0,1 -1,0 -1,0 -1,0 0,0 0,-1 0,-1zm4 11c0,1 0,1 0,2 0,0 0,0 0,0 0,-1 0,-1 0,-2 0,0 0,0 0,0zm-15 -44c1,0 1,-1 1,-1 0,0 0,0 0,0 0,0 0,0 0,1 0,0 0,0 -1,0 0,0 0,0 0,0zm13 36c0,0 0,1 0,1 0,0 0,0 0,0 0,0 -1,0 -1,-1 0,0 0,0 0,0 0,0 1,0 1,0zm-15 -38c1,0 1,0 1,0 0,0 0,0 0,0 0,0 0,0 -1,0 0,0 0,0 0,0zm-5 -3c0,0 0,1 0,1 0,0 0,0 -1,0 0,0 0,-1 0,-1 1,0 1,0 1,0zm26 48c-1,0 -1,0 -1,0 0,0 1,0 1,0 0,0 0,0 0,0 0,0 0,0 0,0zm-48 -9c0,0 1,0 1,0 0,0 0,0 0,0 0,0 0,0 -1,0 0,0 0,0 0,0zm21 -41c0,0 0,0 0,0 0,0 0,0 0,0 0,0 0,0 0,0 0,0 0,0 0,0zm3 13c0,0 0,0 0,0 0,0 0,0 0,0 0,0 0,0 0,0 0,0 0,0 0,0zm1 11c0,0 0,0 0,0 0,0 0,0 0,0 0,0 0,0 0,0 0,0 0,0 0,0zm20 8c0,1 0,1 0,1 0,0 0,0 0,0 0,0 0,0 0,-1 0,0 0,0 0,0zm-11 0c0,0 1,0 1,0 0,0 0,1 0,1 0,0 0,0 0,0 -1,-1 -1,-1 -1,-1 0,0 0,0 0,0 0,0 0,0 0,0zm-34 -4c0,0 0,0 0,0 0,0 0,0 0,0 0,0 0,0 0,0 0,0 0,0 0,0zm-1 8c0,0 0,-1 1,-1 0,1 0,1 0,1 -1,0 -1,0 -1,0zm28 -8c0,0 0,0 0,0 0,0 0,0 0,0 0,0 0,0 0,0zm-19 6c0,0 1,0 1,1 -1,0 -1,0 -1,0 0,0 0,-1 0,-1zm-10 0c1,0 1,0 1,0 0,0 0,1 0,1 0,0 0,0 -1,0 0,0 0,0 0,-1zm26 1c0,0 1,0 1,0 0,0 0,0 0,0 0,0 -1,0 -1,0zm11 -28c0,0 1,0 1,0 0,0 0,0 0,0 0,0 0,0 -1,0zm-5 26c0,0 0,0 0,0 0,0 0,0 0,0 0,0 0,0 0,0 0,0 0,0 0,0zm-6 4c0,0 0,0 0,0 0,0 0,0 0,0 0,0 0,0 0,0 0,0 0,0 0,0zm1 -23c0,0 0,0 0,0 0,0 0,0 0,0 0,0 0,0 0,0 0,0 0,0 0,0zm-25 15c0,0 0,0 0,0 0,0 -1,0 -1,0 0,0 0,0 0,0 0,0 1,0 1,0zm33 3c0,0 0,0 0,0 -1,0 -1,0 -1,0 0,0 0,0 0,0 0,0 0,0 1,0zm-4 -25c0,0 0,0 0,0 0,0 0,0 0,0 0,0 0,0 0,0 0,0 0,0 0,0zm-3 10c0,0 0,0 0,0 0,0 0,0 -1,0 0,0 0,0 0,0 1,0 1,0 1,0zm10 16c0,0 0,0 0,0 -1,0 -1,0 -1,0 0,0 0,0 0,0 0,0 0,0 1,0zm-36 11c1,0 1,0 1,0 0,0 0,0 0,0 0,0 0,0 -1,0 0,0 0,0 0,0zm45 -11c0,0 0,1 0,1 0,0 0,0 0,0 0,0 0,-1 0,-1 0,0 0,0 0,0z"/>
   <g>
    <path id="Curve_x0020_1" class="fil1" d="M261 63c0,1 7,3 15,3 9,0 16,-1 16,-3 0,-1 -7,-3 -16,-3 -8,0 -15,1 -15,3z"/>
    <path class="fil2" d="M299 33c0,13 -10,22 -22,22 -12,0 -22,-9 -22,-22 0,-12 10,-22 22,-22 12,0 22,10 22,22z"/>
    <path class="fil3 str0" d="M300 51c0,0 0,4 6,7 5,3 10,2 10,2"/>
    <path class="fil4" d="M277 3c-16,0 -30,14 -30,30 0,17 14,30 30,30 17,0 30,-13 30,-30 0,-16 -13,-30 -30,-30zm10 6c4,0 8,3 8,7 0,3 -1,5 -3,7 -2,1 -3,1 -5,1 -1,0 -1,0 -2,0 -3,-1 -6,-4 -6,-8 0,-4 4,-7 8,-7zm-13 29c0,0 1,1 1,2 0,1 -1,1 -1,1 -1,0 -2,0 -2,-1 0,-1 1,-2 2,-2zm-4 -6c1,0 1,1 1,1 0,1 0,2 -1,2 -1,0 -2,-1 -2,-2 0,0 1,-1 2,-1zm4 -7c1,0 1,1 1,2 0,1 0,2 -1,2 -1,0 -2,-1 -2,-2 0,-1 1,-2 2,-2zm7 1c1,0 2,1 2,2 0,0 -1,1 -2,1 0,0 -1,-1 -1,-1 0,-1 1,-2 1,-2zm4 6c1,0 1,0 1,1 0,1 0,2 -1,2 -1,0 -2,-1 -2,-2 0,-1 1,-1 2,-1zm-36 2c0,-1 0,-1 0,-1 0,-4 4,-8 8,-8 4,0 8,3 8,7 0,0 0,1 0,1 0,4 -3,8 -8,8 -4,0 -7,-3 -8,-7zm11 -16c0,-1 0,-1 0,-1 0,-4 3,-8 7,-8 4,0 8,3 8,7 0,1 0,1 0,1 0,4 -3,8 -8,8 -4,0 -7,-3 -7,-7zm7 40c-4,0 -7,-3 -7,-8 0,-4 3,-7 7,-7 5,0 8,3 8,7 0,5 -3,8 -8,8zm7 -25c0,-1 1,-3 3,-3 2,0 3,2 3,3 0,2 -1,3 -3,3 -2,0 -3,-1 -3,-3zm7 5c1,0 1,1 1,2 0,1 0,1 -1,1 -1,0 -2,0 -2,-1 0,-1 1,-2 2,-2zm6 20c-4,0 -8,-3 -8,-8 0,-4 4,-7 8,-7 4,0 8,3 8,7 0,5 -4,8 -8,8zm10 -17c-4,0 -7,-4 -7,-8 0,-4 3,-8 7,-8 2,0 3,0 4,1 1,1 3,2 3,4 1,1 1,2 1,3 0,4 -3,8 -8,8z"/>
    <path class="fil5" d="M277 3c-16,0 -30,14 -30,30 0,17 14,30 30,30 17,0 30,-13 30,-30 0,-16 -13,-30 -30,-30zm10 6c4,0 8,3 8,7 0,3 -1,5 -3,7 -2,1 -3,1 -5,1 -1,0 -1,0 -2,0 -3,-1 -6,-4 -6,-8 0,-4 4,-7 8,-7zm-13 29c0,0 1,1 1,2 0,1 -1,1 -1,1 -1,0 -2,0 -2,-1 0,-1 1,-2 2,-2zm-4 -6c1,0 1,1 1,1 0,1 0,2 -1,2 -1,0 -2,-1 -2,-2 0,0 1,-1 2,-1zm4 -7c1,0 1,1 1,2 0,1 0,2 -1,2 -1,0 -2,-1 -2,-2 0,-1 1,-2 2,-2zm7 1c1,0 2,1 2,2 0,0 -1,1 -2,1 0,0 -1,-1 -1,-1 0,-1 1,-2 1,-2zm4 6c1,0 1,0 1,1 0,1 0,2 -1,2 -1,0 -2,-1 -2,-2 0,-1 1,-1 2,-1zm-36 2c0,-1 0,-1 0,-1 0,-4 4,-8 8,-8 4,0 8,3 8,7 0,0 0,1 0,1 0,4 -3,8 -8,8 -4,0 -7,-3 -8,-7zm11 -16c0,-1 0,-1 0,-1 0,-4 3,-8 7,-8 4,0 8,3 8,7 0,1 0,1 0,1 0,4 -3,8 -8,8 -4,0 -7,-3 -7,-7zm7 40c-4,0 -7,-3 -7,-8 0,-4 3,-7 7,-7 5,0 8,3 8,7 0,5 -3,8 -8,8zm7 -25c0,-1 1,-3 3,-3 2,0 3,2 3,3 0,2 -1,3 -3,3 -2,0 -3,-1 -3,-3zm7 5c1,0 1,1 1,2 0,1 0,1 -1,1 -1,0 -2,0 -2,-1 0,-1 1,-2 2,-2zm6 20c-4,0 -8,-3 -8,-8 0,-4 4,-7 8,-7 4,0 8,3 8,7 0,5 -4,8 -8,8zm10 -17c-4,0 -7,-4 -7,-8 0,-4 3,-8 7,-8 2,0 3,0 4,1 1,1 3,2 3,4 1,1 1,2 1,3 0,4 -3,8 -8,8z"/>
    <path class="fil6" d="M277 4c-16,0 -30,13 -30,30 0,0 1,0 2,0 0,0 0,-1 0,-1 0,-4 4,-8 8,-8 4,0 8,4 8,8 1,-1 3,-1 4,-2 6,-3 12,-5 16,-7 -3,-1 -6,-4 -6,-7 0,-4 4,-8 8,-8 4,0 8,4 8,8 0,2 -1,5 -3,6 1,0 2,0 3,0 2,1 4,2 6,3 1,1 3,2 3,4 2,2 3,4 3,4 0,-17 -13,-30 -30,-30zm-10 21c-4,0 -7,-4 -7,-8 0,-4 3,-8 7,-8 5,0 8,4 8,8 0,4 -3,8 -8,8zm7 4c-1,0 -2,-1 -2,-2 0,-1 1,-2 2,-2 1,0 1,1 1,2 0,1 0,2 -1,2z"/>
    <path class="fil7 str1" d="M277 3c-16,0 -30,14 -30,30 0,17 14,30 30,30 17,0 30,-13 30,-30 0,-16 -13,-30 -30,-30z"/>
    <path class="fil7 str1" d="M287 9c4,0 8,3 8,7 0,3 -1,5 -3,7 -2,1 -3,1 -5,1 -1,0 -1,0 -2,0 -3,-1 -6,-4 -6,-8 0,-4 4,-7 8,-7z"/>
    <path class="fil7 str1" d="M249 34c0,-1 0,-1 0,-1 0,-4 4,-8 8,-8 4,0 8,3 8,7 0,0 0,1 0,1 0,4 -3,8 -8,8 -4,0 -7,-3 -8,-7z"/>
    <path class="fil7 str1" d="M267 58c-4,0 -7,-3 -7,-8 0,-4 3,-7 7,-7 5,0 8,3 8,7 0,5 -3,8 -8,8z"/>
    <path class="fil7 str1" d="M287 58c-4,0 -8,-3 -8,-8 0,-4 4,-7 8,-7 4,0 8,3 8,7 0,5 -4,8 -8,8z"/>
    <path class="fil7 str1" d="M297 41c-4,0 -7,-4 -7,-8 0,-4 3,-8 7,-8 2,0 3,0 4,1 1,1 3,2 3,4 1,1 1,2 1,3 0,4 -3,8 -8,8z"/>
    <path id="Curve1_x0020_" class="fil7 str1" d="M267 24c-4,0 -7,-3 -7,-8 0,-4 3,-7 7,-7 5,0 8,3 8,7 0,5 -3,8 -8,8z"/>
   </g>
   <g>
    <path class="fil8" d="M374 60c0,3 15,6 35,6 19,0 35,-3 34,-6 0,-3 -15,-6 -35,-6 -19,0 -35,3 -34,6z"/>
    <path class="fil8" d="M374 60c0,3 15,6 35,6 19,0 34,-3 34,-6 0,-3 -16,-6 -35,-6 -19,0 -34,3 -34,6z"/>
    <path class="fil8" d="M374 60c0,3 16,6 35,6 18,0 34,-3 34,-6 0,-3 -16,-6 -35,-6 -18,0 -34,3 -34,6z"/>
    <path class="fil8" d="M375 60c0,3 15,6 34,6 18,0 33,-3 33,-6 0,-3 -15,-6 -34,-6 -18,0 -33,3 -33,6z"/>
    <path class="fil9" d="M375 60c0,3 15,6 34,6 18,0 33,-3 33,-6 0,-3 -15,-6 -34,-6 -18,0 -33,3 -33,6z"/>
    <path class="fil9" d="M376 60c0,3 14,6 33,6 18,-1 32,-3 32,-6 0,-3 -14,-6 -33,-6 -18,0 -32,3 -32,6z"/>
    <path class="fil10" d="M376 60c0,3 15,5 33,5 17,0 32,-2 32,-5 0,-3 -15,-5 -33,-5 -18,0 -32,2 -32,5z"/>
    <path class="fil10" d="M376 60c1,3 15,5 33,5 17,0 32,-2 31,-5 0,-3 -14,-5 -32,-5 -17,0 -32,2 -32,5z"/>
    <path class="fil10" d="M377 60c0,3 14,5 32,5 17,0 31,-2 31,-5 0,-3 -14,-5 -32,-5 -17,0 -31,2 -31,5z"/>
    <path class="fil11" d="M377 60c0,3 14,5 32,5 17,0 31,-2 31,-5 0,-3 -14,-5 -32,-5 -17,0 -31,2 -31,5z"/>
    <path class="fil12" d="M378 60c0,3 14,5 31,5 17,0 30,-2 30,-5 0,-3 -14,-5 -31,-5 -17,0 -30,2 -30,5z"/>
    <path class="fil12" d="M378 60c0,3 14,5 31,5 16,0 30,-2 30,-5 0,-3 -14,-5 -31,-5 -16,0 -30,2 -30,5z"/>
    <path class="fil12" d="M379 60c0,3 13,5 30,5 16,0 29,-2 29,-5 0,-3 -13,-5 -30,-5 -16,0 -29,2 -29,5z"/>
    <path class="fil13" d="M379 60c0,3 13,5 30,5 16,0 29,-2 29,-5 0,-3 -13,-5 -30,-5 -16,0 -29,2 -29,5z"/>
    <path class="fil14" d="M379 60c0,3 14,5 30,5 16,0 29,-2 29,-5 -1,-3 -14,-5 -30,-5 -16,0 -29,2 -29,5z"/>
    <path class="fil14" d="M380 60c0,3 13,5 29,5 15,0 28,-2 28,-5 0,-3 -13,-5 -29,-5 -15,0 -28,2 -28,5z"/>
    <path class="fil15" d="M380 60c0,3 13,5 29,5 15,0 28,-2 28,-5 0,-3 -13,-5 -29,-5 -15,0 -28,2 -28,5z"/>
    <path class="fil16" d="M381 60c0,3 12,5 28,5 15,0 27,-2 27,-5 0,-3 -12,-5 -28,-5 -15,0 -27,2 -27,5z"/>
    <path class="fil16" d="M381 60c0,2 12,5 28,5 15,0 27,-2 27,-5 0,-3 -12,-5 -28,-5 -15,0 -27,2 -27,5z"/>
    <path class="fil17" d="M382 60c0,2 12,4 27,5 14,0 26,-2 26,-5 0,-2 -12,-5 -27,-5 -14,0 -26,2 -26,5z"/>
    <path class="fil18" d="M382 60c0,2 12,4 27,4 14,0 26,-1 26,-4 0,-2 -12,-4 -27,-4 -14,0 -26,1 -26,4z"/>
    <path class="fil19" d="M382 60c0,2 12,4 27,4 14,0 26,-2 26,-4 0,-2 -12,-4 -27,-4 -14,0 -26,2 -26,4z"/>
    <path class="fil19" d="M383 60c0,2 11,4 26,4 14,0 25,-2 25,-4 0,-2 -11,-4 -26,-4 -14,0 -25,2 -25,4z"/>
    <path class="fil19" d="M383 60c0,2 12,4 26,4 13,0 25,-2 25,-4 0,-2 -12,-4 -26,-4 -13,0 -25,2 -25,4z"/>
    <path class="fil20" d="M384 60c0,2 11,4 25,4 13,0 24,-2 24,-4 0,-2 -11,-4 -25,-4 -13,0 -24,2 -24,4z"/>
    <path class="fil20" d="M384 60c0,2 11,4 25,4 13,0 24,-2 24,-4 0,-2 -11,-4 -25,-4 -13,0 -24,2 -24,4z"/>
    <path class="fil21" d="M385 60c0,2 10,4 24,4 13,0 23,-2 23,-4 0,-2 -10,-4 -24,-4 -13,0 -23,2 -23,4z"/>
    <path class="fil22" d="M385 60c0,2 11,4 24,4 13,0 23,-2 23,-4 0,-2 -11,-4 -24,-4 -13,0 -23,2 -23,4z"/>
    <path class="fil23" d="M385 60c0,2 11,4 24,4 12,0 23,-2 23,-4 0,-2 -11,-4 -24,-4 -12,0 -23,2 -23,4z"/>
    <path class="fil23" d="M386 60c0,2 10,4 23,4 12,0 22,-2 22,-4 0,-2 -10,-4 -23,-4 -12,0 -22,2 -22,4z"/>
    <path class="fil24" d="M386 60c0,2 10,4 23,4 12,0 22,-2 22,-4 0,-2 -10,-4 -23,-4 -12,0 -22,2 -22,4z"/>
    <path class="fil25" d="M387 60c0,2 9,4 22,4 12,0 21,-2 21,-4 0,-2 -10,-4 -22,-4 -12,0 -21,2 -21,4z"/>
    <path class="fil26" d="M387 60c0,2 10,4 22,4 11,0 21,-2 21,-4 0,-2 -10,-4 -22,-4 -11,0 -21,2 -21,4z"/>
    <path class="fil27" d="M388 60c0,2 9,3 21,4 11,0 20,-2 20,-4 0,-2 -9,-3 -21,-4 -11,0 -20,2 -20,4z"/>
    <path class="fil27" d="M388 60c0,2 9,3 21,3 11,1 20,-1 20,-3 0,-2 -9,-3 -21,-3 -11,-1 -20,1 -20,3z"/>
    <path class="fil28" d="M388 60c0,2 9,3 21,3 11,0 20,-1 20,-3 0,-2 -9,-3 -21,-3 -11,0 -20,1 -20,3z"/>
    <path class="fil28" d="M389 60c0,2 9,3 20,3 10,0 19,-1 19,-3 0,-2 -9,-3 -20,-3 -10,0 -19,1 -19,3z"/>
    <path class="fil29" d="M389 60c0,2 9,3 20,3 10,0 19,-1 19,-3 0,-2 -9,-3 -20,-3 -10,0 -19,1 -19,3z"/>
    <path class="fil30" d="M390 60c0,2 8,3 19,3 10,0 18,-1 18,-3 0,-2 -8,-3 -19,-3 -10,0 -18,1 -18,3z"/>
    <path class="fil31" d="M390 60c0,2 8,3 19,3 10,0 18,-1 18,-3 0,-2 -8,-3 -19,-3 -10,0 -18,1 -18,3z"/>
    <path class="fil32" d="M391 60c0,1 8,3 18,3 9,0 17,-1 17,-3 0,-2 -8,-3 -18,-3 -9,0 -17,1 -17,3z"/>
    <path class="fil33" d="M391 60c0,1 8,3 18,3 9,0 17,-1 17,-3 0,-1 -8,-3 -18,-3 -9,0 -17,1 -17,3z"/>
    <path class="fil34" d="M391 60c0,1 8,3 18,3 9,0 17,-1 17,-3 0,-1 -8,-3 -18,-3 -9,0 -17,1 -17,3z"/>
    <path class="fil35" d="M392 60c0,1 7,3 16,3 10,0 17,-1 17,-3 0,-1 -7,-3 -17,-3 -9,0 -16,1 -16,3z"/>
    <path class="fil36" d="M392 60c0,1 8,3 16,3 9,0 17,-1 17,-3 0,-1 -8,-3 -17,-3 -8,0 -16,1 -16,3z"/>
    <path class="fil37" d="M393 60c0,1 7,3 15,3 9,0 16,-1 16,-3 0,-1 -7,-3 -16,-3 -8,0 -15,1 -15,3z"/>
    <path class="fil37" d="M393 60c0,1 7,2 15,3 9,0 16,-1 16,-3 0,-1 -7,-2 -16,-3 -8,0 -15,1 -15,3z"/>
    <path class="fil38" d="M393 60c0,1 7,2 15,3 9,0 15,-1 15,-3 0,-1 -6,-2 -15,-3 -8,0 -15,1 -15,3z"/>
    <path class="fil1" d="M394 60c0,1 6,2 14,2 9,1 15,0 15,-2 0,-1 -6,-2 -15,-2 -8,-1 -14,0 -14,2z"/>
    <path class="fil2" d="M382 5l0 54 51 0 0 -54 -51 0zm8 52l-5 0 0 -3 5 0 0 3zm0 -5l-5 0 0 -4 5 0 0 4zm0 -6l-5 0 0 -4 5 0 0 4zm0 -6l-5 0 0 -4 5 0 0 4zm0 -6l-5 0 0 -4 5 0 0 4zm0 -6l-5 0 0 -4 5 0 0 4zm0 -6l-5 0 0 -4 5 0 0 4zm0 -6l-5 0 0 -4 5 0 0 4zm0 -6l-5 0 0 -4 5 0 0 4zm41 47l-5 0 0 -3 5 0 0 3zm0 -5l-5 0 0 -4 5 0 0 4zm0 -6l-5 0 0 -4 5 0 0 4zm0 -6l-5 0 0 -4 5 0 0 4zm0 -6l-5 0 0 -4 5 0 0 4zm0 -6l-5 0 0 -4 5 0 0 4zm0 -6l-5 0 0 -4 5 0 0 4zm0 -6l-5 0 0 -4 5 0 0 4zm0 -6l-5 0 0 -4 5 0 0 4z"/>
    <path class="fil39" d="M423 19c0,1 -2,3 -4,3l-22 0c-3,0 -4,-2 -4,-3l0 -10c0,-1 1,-3 4,-3l22 0c2,0 4,2 4,3l0 10z"/>
    <path class="fil40" d="M423 19c0,1 -2,3 -4,3l-22 0c-3,0 -4,-2 -4,-3l0 -10c0,-1 1,-3 4,-3l22 0c2,0 4,2 4,3l0 10z"/>
    <path class="fil41" d="M423 9c0,-1 -2,-3 -4,-3l-22 0c-3,0 -4,2 -4,3l0 7c0,0 4,0 10,-1 10,-1 20,-6 20,-6z"/>
    <path class="fil42" d="M423 36c0,2 -2,4 -4,4l-22 0c-3,0 -4,-2 -4,-4l0 -9c0,-2 1,-3 4,-3l22 0c2,0 4,1 4,3l0 9z"/>
    <path class="fil43" d="M423 36c0,2 -2,4 -4,4l-22 0c-3,0 -4,-2 -4,-4l0 -9c0,-2 1,-3 4,-3l22 0c2,0 4,1 4,3l0 9z"/>
    <path class="fil44" d="M423 27c0,-2 -2,-3 -4,-3l-22 0c-3,0 -4,1 -4,3l0 6c0,0 4,1 10,0 10,-1 20,-6 20,-6z"/>
    <path class="fil45" d="M423 54c0,2 -2,4 -4,4l-22 0c-3,0 -4,-2 -4,-4l0 -9c0,-2 1,-3 4,-3l22 0c2,0 4,1 4,3l0 9z"/>
    <path class="fil46" d="M423 54c0,2 -2,4 -4,4l-22 0c-3,0 -4,-2 -4,-4l0 -9c0,-2 1,-3 4,-3l22 0c2,0 4,1 4,3l0 9z"/>
    <path id="Curve2_x0020_" class="fil47" d="M423 45c0,-2 -2,-3 -4,-3l-22 0c-3,0 -4,1 -4,3l0 6c0,0 4,1 10,0 10,-1 20,-6 20,-6z"/>
   </g>
   <path class="fil0" d="M29 12c0,0 0,1 1,2 0,0 0,-1 0,-1 0,0 1,1 1,1l0 0 -1 1c0,0 0,0 0,-1l0 1 0 0 0 1 0 0 0 0 0 1 0 0c0,0 0,0 0,0l-1 0 0 0c0,0 0,1 0,1l0 0c1,2 1,3 1,4 0,2 -1,3 -5,4 0,0 1,1 1,2 0,0 0,0 -1,0 0,-2 -1,-3 -1,-3l-2 0c-2,0 -3,1 -3,3l-1 0c-1,0 -2,1 -5,1 0,0 0,0 0,0l0 0 0 1 0 0 0 0c-1,0 -2,0 -3,0l0 0 0 0 1 0 0 -1 -1 0 -1 0c0,0 0,1 -1,1l0 0 2 -1 0 0c3,0 4,-1 4,-2 0,0 0,1 0,1 3,-1 4,-1 6,-2l0 -1 -2 0 0 -1 -1 0 -1 0c0,0 0,0 0,0l0 0c-3,0 -6,-1 -9,-3l-1 0 0 1c0,0 0,0 0,-1 -3,-1 -5,-3 -5,-4l-1 0 0 1c0,0 0,0 0,0l0 1c0,0 0,0 0,0l0 10c0,0 0,0 0,0l0 0c1,0 1,0 1,0 4,-1 6,-2 6,-4 0,0 0,1 1,1l1 0 1 0 0 1 0 0 1 0 0 1 -1 0c0,-1 0,-1 -1,-1l0 0c-1,0 -1,0 -1,0l-1 0 0 0c0,1 -1,1 -1,1 0,1 0,1 0,2 0,0 0,0 0,0 0,1 0,1 1,1l0 0c0,0 -1,0 -1,1 -1,-1 -1,-2 -1,-2l-1 0 0 0 0 0c-3,0 -4,1 -4,1l0 0c0,0 0,0 1,0l1 0 0 0c-2,0 -2,1 -2,1l0 16c1,0 1,0 1,0 4,-1 6,-2 6,-3 0,0 0,0 0,1 0,0 1,0 2,1 1,0 2,0 2,0l1 2c2,0 2,1 2,1 1,0 1,0 1,0 0,0 1,0 1,0l0 0c0,0 1,1 1,1 3,-2 4,-3 4,-3l0 0 -3 0 0 -9 7 0 1 -1c0,0 0,-1 0,-1 0,0 0,-1 0,-2 1,0 1,1 2,2 2,0 3,-1 3,-2 0,0 0,1 0,1 2,-1 3,-1 3,-1l0 -1c0,0 -1,1 -1,1 -1,0 -1,0 -1,0 -3,-1 -5,-1 -5,-2l-1 0 0 2 0 0c0,-2 -1,-2 -1,-2l0 0 0 0 1 0 0 -1c-1,0 -1,0 -1,0l-1 0 0 0 0 0c0,0 0,0 0,0l-1 0 -1 0 0 0c-3,-2 -4,-2 -4,-2l0 -1c0,0 0,0 0,0 0,1 2,1 5,1 2,0 2,-1 2,-1l1 0c0,0 0,1 1,3 2,0 3,1 4,1l0 0c0,0 1,0 1,0 0,0 0,0 0,0 1,0 2,0 3,0l0 0c0,-1 1,-1 1,-1 0,0 1,0 1,0 0,0 0,0 0,0 2,0 3,0 3,-2 3,-1 4,-2 5,-2 0,-2 1,-2 2,-2l0 -1 -1 0 0 0c0,0 1,-1 1,-1l0 0 -1 0c1,-1 1,-1 1,-1 0,-1 0,-1 0,-1 0,0 0,-1 1,-1l0 0 -1 0c1,-2 1,-3 1,-3 0,0 -1,-1 -1,-3l0 0c0,0 0,0 0,1l1 0c0,-1 -2,-2 -4,-2l0 0 0 0 -1 0 0 0 0 -1 -2 -1 -1 0c0,0 0,1 1,1l0 0 0 0 -1 0 0 -1 -2 0c0,0 0,0 0,1l-1 0 0 -1 -2 1 -1 0 0 0 1 0 0 0c-1,0 -2,1 -3,1l0 0c1,0 1,-1 1,-1 -1,0 -2,-1 -4,-1l0 0zm-22 -8c-2,0 -3,1 -3,1 -3,2 -4,4 -4,7l0 4 0 0 0 0c0,0 1,0 1,0 1,-1 2,-3 3,-5l0 0 0 0c0,-1 0,-2 1,-2l0 -1c-1,0 -1,-1 -1,-2l0 0c0,1 1,1 2,1 0,0 0,0 0,0l0 2 1 0 0 1 -1 0 0 0 1 0 0 1c-1,0 -1,0 -1,0l0 0c0,0 0,1 0,2 0,2 1,4 1,5 2,4 5,6 10,6 1,0 1,-1 1,-1l0 -5 7 0c1,0 2,0 3,0 1,-1 1,-2 1,-2 0,-1 0,-1 0,-1l0 -1 0 0c0,0 0,0 0,0 0,-1 -1,-2 -1,-3l0 0c-1,-4 -2,-6 -3,-6 0,0 0,0 -1,0 -1,0 -2,0 -3,0l0 0 -3 0 -2 0 -1 0 0 0 0 0 0 0 1 -1 1 1c0,0 0,-1 0,-1 0,1 0,1 0,1l1 0 1 -1c0,1 0,1 0,1 0,0 0,-1 0,-1 0,0 0,0 0,0l0 0 -1 0c0,0 0,0 0,0l-1 0c-1,0 -2,0 -4,0 -4,0 -5,0 -6,0zm34 29c-1,0 -2,0 -3,1l0 0 0 0 0 0c-1,0 -1,1 -1,1 -5,1 -8,2 -8,4 3,0 4,2 4,4 0,3 -1,4 -6,5 2,5 6,8 11,7l2 0c3,-1 4,-2 4,-3 1,-1 2,-2 2,-3l0 0 0 -2 0 -1 0 0 0 0 0 0 1 -1 0 0 -1 -1 1 0c0,-2 0,-3 0,-3l0 0c0,0 0,-1 0,-1l0 0c0,-1 0,-1 0,-2l0 0c0,-1 0,-2 -1,-2 0,-1 -3,-2 -7,-2l-1 0 0 0c1,0 1,0 2,0 0,0 1,0 1,0 0,0 0,-1 0,-1l0 0zm-34 14l-7 3 0 0c0,0 1,0 3,-1l0 0 0 0c-2,1 -3,2 -3,2l0 2c0,6 3,9 10,9l3 0c0,0 1,0 1,-1l0 0 0 1 1 0 0 -2 0 -3 0 0 -1 0 1 0 0 -2 -1 -1 1 0c0,0 0,0 -1,-1l0 0 0 1 0 0c0,-1 -1,-2 -1,-2l0 -2c-1,0 -1,0 -1,0 0,-2 -1,-2 -4,-3l0 0c0,0 -1,0 -1,0l0 0zm28 10l1 0 0 0 0 0c-1,0 -2,-1 -3,-1l0 0 0 0c0,0 0,0 1,0l0 0 0 -1c-1,0 -3,-1 -6,-2 -1,0 -1,0 -1,0l0 0c2,1 3,1 3,1 -2,0 -3,0 -4,-1l-1 0 0 0 -1 0 1 1 -1 0 0 -1c0,0 0,1 -1,1 0,0 0,-1 -1,-1l0 0c-3,0 -4,1 -4,1 -2,0 -3,1 -3,3l1 1c-1,1 -1,2 -1,2l0 1c1,1 1,1 1,1l10 0c8,0 12,-1 12,-2l0 0 0 0 0 0 0 0 -2 -3 0 -1 -1 0 0 1zm-9 -53c1,2 2,3 2,4 1,2 3,3 5,3l1 0c0,0 0,0 1,0 2,0 3,0 3,0l1 0 0 0 0 0c2,0 3,-1 4,-3 -4,-3 -9,-4 -17,-4l0 0zm23 32c0,0 0,1 0,1 0,0 0,1 0,1l0 0c0,1 0,1 0,1l1 0 0 0 0 0c0,1 0,1 0,1l-1 0 0 0c0,1 0,1 1,1 0,0 -1,1 -1,2 0,1 0,2 0,2 0,1 0,2 0,4 0,1 1,2 2,3 1,-2 2,-4 2,-6l0 -2c0,-3 -2,-6 -4,-8l0 0 0 0zm-4 18c0,0 -1,0 -1,0l0 0 0 0c-1,0 -2,1 -2,1 -4,0 -6,1 -6,1 1,2 2,2 2,2l2 0c0,1 0,1 1,2 4,-2 7,-3 9,-6l0 0 -1 0c-1,0 -2,0 -3,0 0,0 0,0 -1,0l0 0zm-22 -6c-1,0 -2,1 -2,2l1 0c-1,0 -1,1 -1,2 0,1 1,1 1,1l0 0c0,0 0,0 1,0 2,-1 4,-2 4,-2l0 0 0 -1 0 0c0,-1 -1,-2 -1,-2l-3 0zm-19 -34l1 0c-3,1 -4,2 -4,3l0 0c1,2 3,3 3,3l1 0c0,0 1,-1 2,-1l0 0c-2,-4 -2,-6 -2,-7l-1 0 0 2zm40 -6c-1,2 -2,3 -2,3l0 0 1 0c0,1 1,2 2,2 1,0 2,-1 2,-1l0 -1c0,0 -1,-1 -3,-3zm3 39l0 2 -1 3c0,0 0,1 0,1l1 0 0 -1 -1 0 0 0 1 0c0,0 0,0 1,1l1 0 1 0 0 0c-1,-2 -2,-3 -3,-3l0 0c0,-1 1,-1 1,-1l0 -2 0 0 -1 0 0 0zm-26 4c-1,0 -3,1 -5,2l0 -1c0,0 -1,0 -1,1 0,-1 -1,-1 -1,-1l0 1c1,0 1,1 1,1l1 0 -1 -1 0 0 1 0 0 1 1 0c0,0 0,-1 1,-1 1,0 2,0 3,-2l0 0zm21 -19c1,1 1,2 2,2l1 0 0 0 1 0c0,0 0,0 0,0 -1,-1 -2,-2 -3,-2l-1 0zm6 8c0,1 0,1 0,1l-1 4c0,0 0,0 1,0 0,1 0,1 -1,1l0 0 1 0c0,0 0,0 0,0l0 -1 0 0 0 -1 0 0 0 -1c0,0 0,-1 1,-2l0 -1 -1 0zm0 -23c0,0 0,1 0,2l1 0 0 1 -1 -1 0 1 0 0 1 0c0,0 0,0 0,0l0 0 0 -2c0,-1 -1,-1 -1,-1l0 0 0 0zm-40 15c1,2 2,4 2,5l0 0 -1 0c0,-2 0,-3 -1,-4l0 -1 0 0zm39 3c0,0 0,0 0,1l0 0 0 0 0 0 0 0 0 0c0,0 0,1 0,1l1 0 0 -1 0 -1 -1 0zm-2 22c1,-2 2,-3 2,-3l0 0 -1 1 1 1c-1,0 -1,0 -2,1l0 0zm-35 -20c0,0 0,1 1,2l0 0 -1 0 0 -1 -1 -1 1 0zm13 -33c0,0 -1,0 -1,0l0 0 1 0 1 0 0 0 -1 0zm-13 37c0,0 0,-1 0,-1l0 2 0 0c0,0 0,-1 0,-1zm-5 -31c0,0 0,0 0,1l0 0 0 0 0 0 0 0 0 1 1 0 0 -1 -1 -1zm20 20l1 1 0 0c0,0 -1,-1 -1,-1l0 0 0 0zm-22 1c1,0 2,0 2,0l0 0 -2 0 0 0zm7 12l0 1 0 0 0 -1 0 0 0 0zm5 -14l1 1 0 0 -1 0c0,0 -1,0 -1,-1l1 0zm33 -15l0 1 1 0c-1,-1 -1,-1 -1,-1l0 0zm-39 26l0 1c0,0 0,0 0,0l-1 0c1,0 1,0 1,-1l0 0zm0 -1c0,0 0,0 0,0l-1 0 0 0 1 -1 0 1zm18 -6c1,0 1,0 1,0l0 -1c0,0 0,0 -1,0l0 0 0 1zm-23 -25c0,1 0,1 0,1l0 0 0 -1 0 0 0 0zm9 -3l0 0c0,0 0,0 -1,1l0 -1 0 0 1 0zm18 49c0,0 0,1 0,1l0 0c0,0 0,0 -1,-1l1 0zm17 -30l1 0 0 -1 -1 0 0 1zm-16 13l0 0 -1 0c0,0 0,0 0,0l1 0zm-28 -28c0,0 0,1 0,1l0 -1 0 0zm5 28l0 1 -1 0 0 -1 1 0zm12 14c0,0 0,0 0,-1l0 0 0 1zm-12 -9l0 1 0 0 0 -1 0 0zm11 -37l0 0 0 -1 0 0 0 1zm-4 25l0 0 0 0 0 0 0 0zm-8 -6l0 0 0 0 0 0 0 0zm-1 -2l0 1 0 0 0 -1 0 0zm0 2l0 1 0 0 0 -1 0 0zm-1 -13l0 0 0 0 0 0 0 0zm9 50l0 0 -1 0 0 0 1 0zm-8 -36l0 0 0 0 0 0 0 0zm33 29l0 0 0 0 0 0 0 0zm-2 3l0 0 0 0 0 0 0 0zm-24 -27l0 0 -1 0 0 0 1 0zm33 5l0 0 0 -1 0 0 0 1zm-38 8l0 1 0 0 0 -1 0 0zm12 10l0 0 0 -1 0 0 0 1zm-4 -23l0 0 0 0 0 0 0 0zm-8 1l0 0 -1 0 0 0 1 0zm23 24l0 1 0 0 0 -1 0 0zm14 -40l0 0 0 0 0 0 0 0zm-7 45l0 0 0 0 0 0 0 0zm29 -57c-1,0 -3,0 -4,1 -3,1 -4,4 -4,8l0 4c0,1 0,1 1,1 0,0 0,0 0,0l2 0 4 -1c2,0 3,-1 5,-1l1 0 5 -3c0,0 0,0 -1,-1l1 -1c0,-4 -3,-7 -8,-7l-2 0zm35 0c-2,0 -4,1 -3,3l0 2c0,0 0,0 0,0 0,1 1,2 2,2 0,0 0,0 0,0 2,0 3,0 5,1 0,0 0,0 1,-1l0 1c0,0 1,0 3,-1 0,0 0,0 0,0l1 0c0,0 0,0 0,0l0 0 1 0 0 0c0,0 0,0 0,0l0 -1c0,-4 -4,-6 -8,-6l-2 0zm-4 2c-2,0 -3,1 -4,4 0,0 1,1 2,1 0,0 1,-1 2,-1 0,-3 0,-4 0,-4l0 0zm-5 5c-1,1 -4,5 -10,14l0 0c1,1 2,1 2,1 1,0 1,0 2,0l0 0c1,0 3,0 4,-1l0 0c0,0 1,0 1,0 0,0 1,0 1,0l0 0 1 0c0,0 0,0 0,0 1,0 1,0 1,-1l1 1c1,-1 2,-3 3,-5l0 0 -1 0c1,-2 1,-2 2,-2l0 -1c-1,-1 -2,-1 -2,-2l0 0c1,0 2,1 3,1 0,0 0,0 0,0l0 2 0 0 0 0 0 0 0 1 1 0 0 0c-1,0 -1,0 -1,1l0 0c0,0 0,0 0,1 0,3 1,4 1,6 2,4 5,5 10,5l0 0 0 -18c0,0 0,0 -2,-1l0 1 0 0 0 -1 1 0 1 0 0 0 0 0c-1,0 -2,0 -5,0 -1,0 -3,0 -5,-1 0,1 0,1 0,1 0,0 -1,-1 -3,-2 -2,1 -3,1 -3,1l1 0 0 1c-1,-1 -2,-2 -3,-2l0 0c0,0 0,0 0,0l-1 0zm5 3c0,0 0,0 0,0 0,0 0,0 0,0 0,0 0,0 0,0 0,0 0,0 0,0l0 0zm10 0l0 0c0,0 -1,0 -1,0l0 0 0 0 1 0zm-31 0c-1,0 -2,1 -4,2 0,0 0,0 0,1l0 0c0,1 0,1 0,1l3 1c0,0 1,0 1,-1l0 -4zm22 3c0,0 0,0 0,0l-1 0 0 0 1 0 0 0zm-27 0c-1,0 -2,1 -2,1 0,0 0,0 0,0 -1,0 -2,0 -2,0 0,0 0,0 0,0 -2,1 -3,1 -3,2l-1 -1 0 0c-1,0 -2,1 -3,1 -1,0 -2,-1 -2,-1l0 1 0 1c0,1 0,2 1,3l-1 6 0 8c0,1 1,1 4,1 2,0 3,0 3,0 1,0 1,0 1,0 1,0 2,0 2,-1l1 0c1,-2 3,-3 3,-3 2,-1 3,-2 5,-3 0,-1 -1,-1 -1,-1l0 -10 0 0c0,0 0,0 0,0l-2 -2c-2,0 -3,0 -3,-2l0 0zm27 1c0,0 0,0 -1,0l0 0 1 0zm-29 0c0,0 1,0 1,0l0 1 -1 0 0 -1zm0 0l0 1 -1 0 0 -1 1 0zm-3 1l1 0 0 0c-1,0 -3,1 -5,2 -1,0 -1,0 -1,0 2,-1 4,-1 4,-2 0,0 0,0 0,0l1 0zm33 0c0,0 0,0 0,0l0 1 0 0 0 0 0 0 0 0 1 0 0 0 -1 -1zm1 0l0 0 0 0 0 0 0 0zm-2 3l1 1c-3,1 -4,2 -4,3l0 0c1,2 2,2 3,2l1 0c0,0 1,0 1,0l0 -1c-1,-3 -1,-5 -1,-6l-1 0 0 1zm-40 3l0 0 0 -1 0 0 0 1zm23 1c0,0 -1,0 -2,2l0 2c0,1 1,1 1,1 0,0 -1,1 -1,2l0 2 0 0c0,0 0,1 0,3l0 0c0,2 1,3 2,3 2,0 3,0 5,-1 0,0 0,0 1,0 0,0 1,0 1,-1 0,1 1,1 1,1l0 0 0 -1c1,0 2,-1 4,-3l0 0c0,1 0,2 1,2l0 0c1,0 1,0 1,0 4,-1 5,-2 5,-4 1,0 1,0 2,1l1 0 1 0 0 0 0 1 1 0 0 0 -1 1c0,-1 -1,-1 -1,-1l0 0c-1,0 -1,0 -1,0l-1 0 0 0c-1,1 -1,1 -1,1 0,0 0,1 0,2 0,0 0,0 0,0 0,1 0,1 1,1l0 0c0,0 -1,0 -1,0 -1,-1 -1,-1 -1,-1l-1 0 0 0 0 0c-3,0 -4,1 -5,1l0 0c1,0 1,0 2,0l1 0 0 0c-2,0 -3,1 -3,1l0 14 0 2c2,0 3,0 3,0 3,-2 5,-3 5,-3 0,0 0,0 0,0 0,1 1,1 2,2 1,0 2,0 2,0l1 2c2,0 2,1 2,1 1,0 1,0 1,0l0 0c2,0 2,-1 2,-4l0 -17c0,0 0,1 0,1l0 0 0 -1c0,0 0,0 0,-1l0 0c-1,0 -3,1 -4,1 0,0 0,0 0,0l-1 0 0 0 1 0 0 0c-1,0 -2,1 -3,1l0 0 0 0 1 -1 0 0 -1 0 -1 0c0,0 0,0 -1,1l0 -1 2 -1 0 1c2,-1 4,-1 4,-2 0,0 0,0 0,0 2,0 3,0 3,-1l0 -2c0,0 0,0 0,0l0 0 -1 0c0,0 0,0 0,0l0 0c-3,0 -6,-1 -9,-3l-1 0 0 0c0,0 0,0 0,0 -3,-2 -5,-3 -5,-4l-1 0c0,0 0,0 0,1 0,0 0,0 0,-1 -2,1 -3,1 -4,1l-1 0 -1 0 0 1 1 0 0 0 -1 0 -1 0 0 0 1 0 0 -1 -3 1c-1,0 -2,-1 -4,-2l0 0zm12 1c0,0 1,0 1,0l0 0 -1 0 0 0zm-1 0l0 0 0 0 0 0 0 0zm-2 0l0 1 -1 0 0 -1 1 0zm-8 3c0,-1 0,-1 2,-2l0 0c1,0 2,0 2,0 0,0 -1,1 -4,2l0 0zm-4 -1c0,0 0,0 0,1l0 0 0 0c1,0 1,0 1,-1 0,0 0,0 -1,0zm4 1l0 0 -1 0 0 0 1 0zm19 1l0 0 0 0 0 0 0 0zm-23 0c0,1 0,1 0,1l0 2c0,0 0,0 0,0l0 0 0 1 0 0c0,0 0,0 0,1 0,1 0,1 0,2l0 0c0,0 0,0 0,0l0 1c0,0 0,1 0,1l0 1 0 -1 0 0c-1,0 -1,1 -1,1l0 0c1,1 1,2 1,3 0,0 0,1 1,1 -1,0 -2,0 -2,-2l0 0c-1,0 -2,1 -3,1 0,0 0,0 -1,0 -2,0 -4,-1 -6,-3 0,0 0,0 0,0l0 0c0,0 0,0 0,0 -2,0 -3,-1 -5,-1l-1 0 0 1c0,0 0,0 1,0l0 0 0 0 -1 0 -2 0 0 0 0 -1c0,0 0,0 0,0 -1,0 -1,0 -1,1l0 0 0 0c0,0 0,0 0,1l0 14c0,2 0,4 2,5l1 0 0 -1 0 0 0 1 0 0c1,0 2,-1 3,-2l2 -4 0 -1 0 0 1 -2 0 0 0 -1c2,-2 3,-3 3,-4l-1 0 0 0c1,-1 1,-1 1,-3l0 0 0 2c1,1 2,1 2,1l0 0c-1,2 -2,3 -2,3l0 0 0 0c0,-2 1,-2 1,-2 0,-1 0,-1 -1,-1l0 0c0,0 0,0 0,1 -1,2 -2,5 -3,7l0 0c0,0 0,0 0,0l0 1c1,0 1,-2 2,-4l0 0 1 0c-1,2 -2,4 -2,4l0 1c1,1 1,2 2,2l2 0c0,0 0,-1 0,-1 0,0 0,0 0,1 1,0 1,-1 2,-1 1,0 1,0 1,0l0 0c3,-1 5,-4 7,-7l0 -1 -1 0 0 -1 0 0c1,0 2,0 2,-1 -1,-2 -1,-3 -1,-3l0 0 0 0 -1 0 0 0 0 1 0 0 0 -1 -1 0c1,-1 2,-2 2,-3 -1,0 -1,0 -1,-1 -2,0 -3,-2 -3,-4l0 0c0,0 0,-1 0,-1l0 0 0 -1c0,-1 0,-1 1,-2l-1 -1 0 0 1 0 0 0c0,0 0,0 -1,-1l0 0zm24 1l0 1 0 0 0 -1 0 0zm-25 1l-10 7c1,2 3,2 4,2 0,0 0,0 1,0 0,1 1,1 2,1 2,-1 2,-1 2,-1l0 -1c0,0 1,0 1,-1l0 -1c0,0 0,-1 0,-3l0 0c0,0 0,0 0,-1l0 -1 0 0 0 0 0 -1 0 0zm24 0l0 1 -1 0 0 -1 1 0zm0 1l0 0 0 0 0 0 0 0zm8 4l1 0 0 0 -1 0c0,0 -1,0 -1,0l1 0zm-1 0l0 0 -1 0 0 0 1 0zm2 0l0 0 0 0 0 0 0 0zm-13 2c1,0 2,0 2,-1l0 1c0,0 -1,0 -2,0l0 0zm6 0l0 0 -1 0 0 0 1 0zm-40 1c0,0 1,0 1,0l0 0 -1 0 0 0zm2 0c0,0 0,0 0,0l0 0c0,0 -1,0 -1,0l1 0zm1 0l0 0 -1 0 0 0 1 0zm36 0c1,2 1,3 1,4l0 1 0 0c0,-2 0,-3 -1,-4l0 -1 0 0zm-35 1c0,0 0,0 0,0l0 0 0 0c0,0 0,0 0,0l0 0zm21 0c-4,0 -6,0 -6,1l0 1c0,0 0,0 0,0l0 1c0,0 1,-1 1,-2l0 0 0 1 0 1c0,0 0,1 1,3l0 0c3,-4 4,-6 4,-6zm-1 0l0 1 0 0 0 -1 0 0zm-12 2l0 1 0 0 0 -1 0 0zm-4 2c0,0 0,0 0,0l0 0c0,0 0,0 0,0l0 0zm33 0c0,0 0,1 1,2l0 0 -1 0 0 -1 -1 -1 1 0zm-1 0l0 1 -1 0 0 -1 1 0zm-21 1c0,0 0,0 0,1 0,0 0,0 -1,0l0 0c0,-1 0,-1 0,-1l1 0zm21 0c0,1 0,1 0,1l-1 0 0 0 1 -1 0 0zm0 2l0 0c0,1 0,1 0,1l-1 0c1,0 1,-1 1,-1l0 0zm1 1c0,-1 0,-1 0,-1l0 2 0 0c0,0 0,-1 0,-1l0 0zm-22 0l1 0 0 -1 -1 0 0 1zm-12 0c0,0 1,1 1,1l-1 0c0,0 0,0 0,-1l0 0zm33 1l0 1 0 0 0 -1 0 0zm1 0l0 2 0 0 0 -1 0 -1 0 0zm-1 1l0 0 0 0 0 0 0 0zm-3 4l-6 3 0 0c0,0 1,0 3,-1l0 0 0 0 -3 1c2,3 4,5 7,5l2 0c2,0 4,-1 5,-2 -1,-1 -1,-1 -2,-1l0 -2c0,0 0,0 0,0 0,-2 -1,-3 -4,-3l0 0c0,0 -1,0 -1,0l-1 0zm-33 0c0,0 0,0 0,1l0 0 0 0c0,0 0,0 0,-1 0,0 0,0 0,0zm-1 2c0,0 0,1 -2,2l1 1 0 1 -1 0 0 -1c0,0 -1,1 -3,1l0 1c2,0 3,1 5,1l1 0c2,0 3,-1 4,-2l0 0 -1 1 0 0c1,0 3,-1 4,-2l0 -1 0 0 -2 2 0 0c0,-1 1,-2 3,-2l0 -1c-2,1 -3,1 -3,2l-1 -1 0 0c-1,0 -1,1 -1,1l0 0c-1,0 -1,-1 -1,-1l-1 1 0 0c0,-1 0,-1 1,-1l-2 -3c0,0 0,0 0,1l0 -1 -1 0 0 1zm0 3c0,0 0,0 0,0l-1 0 0 0 1 0zm42 0c0,1 0,1 0,1l1 0c0,-1 0,-1 -1,-1l0 0 0 0zm29 -56c-4,0 -8,2 -8,5l0 1c1,0 1,-1 1,-1 1,0 1,0 1,0 1,0 2,0 2,0l1 0c0,0 0,0 0,0 3,-1 4,-2 4,-2l0 0c1,-1 2,-2 2,-2l0 -1c0,0 0,0 0,0l-3 0zm5 0c-1,1 -3,2 -4,3 0,1 1,2 2,2 0,0 0,0 0,0l1 0 1 0 0 -1c0,0 1,0 2,1 0,-1 0,-1 1,-1l0 0 0 0c-1,1 -1,1 -1,2l-3 -1 0 0 -1 1c-2,-1 -2,-1 -2,-1 0,0 0,0 0,0 -1,0 -1,0 -1,0 -1,0 -1,0 -1,0 -4,1 -6,2 -6,2l0 0 0 1 0 0 -1 -1c0,0 0,1 -1,1l0 18c0,0 1,1 1,1l2 0 1 0c0,0 0,0 0,0 1,0 1,0 2,0l0 0 1 0c0,0 0,0 1,0l0 0 1 0 0 0c0,0 0,0 1,0l1 0 1 -1c2,0 4,-2 5,-7l0 -1 0 0c0,-1 0,-1 -1,-1l0 0c0,0 0,0 -1,0l1 -1c0,0 -1,0 -1,-1 0,0 1,0 1,0l-1 -1 0 0 1 0c0,1 0,2 0,2l0 -1 0 0 0 0c0,0 0,-1 0,-1l0 0c0,-2 -1,-3 -1,-3l0 0 0 1 0 0 0 -1c-1,0 -2,-1 -5,-3l0 0 1 0c0,0 0,1 1,1l2 0 1 -1c0,0 1,2 2,3l0 2 0 0c0,2 0,4 1,8l1 0 0 -5 9 0c1,0 1,1 1,1l0 6c1,0 3,0 4,-2l0 0 0 1 0 1 0 0 0 -1c1,1 2,2 2,2l0 0c-1,0 -2,0 -2,-1 -1,1 -2,1 -2,1l-1 0c0,0 -1,1 -1,1l0 16c0,0 0,0 -1,0l-5 0c0,1 0,1 -1,1 0,1 2,2 6,4 4,1 6,2 6,2l1 0 0 0 2 0 -1 0 0 2c0,1 3,2 7,3 2,0 3,0 4,-1l1 0c0,0 -2,1 -4,2 0,0 1,1 2,2 2,0 2,0 2,-1l2 2c0,0 1,0 2,-1 0,1 0,1 0,1l0 0 2 -2 1 0 -1 1 0 0 1 0c-1,2 -2,3 -2,3l0 -1 1 -1 0 0 0 0c-1,0 -1,0 -1,0 0,0 0,0 0,0 -2,0 -3,1 -4,1 0,0 0,0 0,-1 -2,0 -4,-1 -5,-3 -2,0 -4,-1 -6,-2 -2,-1 -3,-2 -3,-2l0 -1c0,0 -1,0 -2,0l0 0 1 1 -1 0c0,-1 -2,-2 -5,-3 -3,-2 -4,-2 -4,-2 -1,0 -2,0 -4,1 0,0 0,1 0,1 1,0 0,0 0,1 0,0 1,1 2,3l0 0 0 0c1,0 1,1 2,2 -1,1 -1,2 -1,3l0 0c1,1 1,1 2,2l2 0 2 -1 0 0c0,0 0,0 1,0 1,-1 3,-2 5,-2l0 0 0 1c-3,1 -4,1 -5,1l0 1 7 0 0 4c0,1 0,2 0,3 2,4 4,5 8,5l3 0c1,0 2,-1 2,-3l0 0 0 -1 0 0 -1 0 0 -1c1,0 1,0 1,0 0,-1 0,-1 0,-1 0,0 0,-1 0,-2l-1 0c0,0 1,0 1,-1 0,0 0,-1 -1,-1l0 -1 0 0c1,1 1,2 1,2l0 0 0 -1c0,0 0,-1 -1,-2l1 0c0,1 1,2 2,3l0 0 -1 0 0 0c1,0 2,1 2,1 0,0 0,0 0,0l0 5 1 0c1,-2 1,-4 1,-5l0 -6 0 -1c0,0 0,0 0,0 0,0 0,0 0,-1 0,0 0,-1 0,-2l0 -3 0 0c-2,-1 -4,-2 -7,-4l-1 0c0,0 0,0 0,0 1,0 1,-1 1,-2l0 0c0,0 1,1 2,3 0,0 0,0 0,-1 1,1 3,2 4,3l1 0 0 0c0,-4 -2,-7 -6,-7l-1 0 0 1 0 0c0,0 -1,0 -1,-1l0 -1 -1 0 -1 3 -6 4 0 0 0 -1c0,0 0,0 0,0 1,-1 3,-2 5,-3 2,-3 2,-4 3,-5l0 0 0 0c0,-1 0,-1 0,-1l0 -1 0 0 -1 0c0,1 0,1 0,1l-1 0c0,0 0,0 1,-1 0,0 -1,0 -1,0l1 -1 -1 -1c0,-1 1,-1 1,-1l0 0c0,0 0,0 0,0 0,0 0,1 0,3 1,0 1,0 1,-1l0 0c0,0 0,0 0,0 0,-1 0,-1 -1,-1 0,0 0,-1 1,-1 -1,-1 -1,-1 -2,-1 0,-1 0,-1 1,-1 0,0 -1,-1 -1,-1l0 0 0 1 0 0c0,-1 0,-2 -1,-2 -2,-3 -4,-5 -7,-5l0 -1c1,0 1,0 1,0 0,-1 -1,-2 -3,-3l0 0c0,0 -1,1 -1,2 0,-2 0,-3 0,-4l0 0 0 0c0,0 1,-1 1,-2 0,0 0,-1 -1,-2 0,0 0,0 0,0l0 0 0 0 0 0 0 -1 0 -1 0 0c0,0 0,0 0,-1l1 2 0 -1c0,-1 0,-1 -1,-1l1 -1 0 0 0 0c0,0 0,0 -1,1l0 0 0 0 0 0 0 -1 0 0c0,0 0,-1 0,-1l0 0 -1 0 -1 -1c1,0 1,0 1,0 1,0 1,0 2,-2l0 0c0,1 1,1 1,2 1,0 1,0 1,0l0 0 0 0c-1,1 -1,2 -1,5 0,0 0,0 0,0 0,1 0,1 0,2l0 1 0 1c1,2 1,3 1,3 2,2 5,3 7,3 0,0 0,0 0,0l0 0c0,0 1,0 1,-1 0,0 1,1 1,1l0 -1 1 1 0 -1 0 -15c0,-2 -1,-3 -2,-5 -1,0 -2,1 -4,2l0 0 1 -1 -1 0 0 0 -1 0 0 0c-1,0 -1,0 -1,0l0 1c-1,-1 -1,-1 -1,-1l-1 0 0 0c0,0 0,-1 1,-1 0,-1 -1,-2 -2,-2l0 0c-1,0 -2,1 -3,3l1 1 0 0 -1 0 0 0 -4 0 0 0c0,0 0,0 0,0l-1 0 0 0c0,0 0,0 -1,0l-1 0 0 0 0 0c0,0 -1,0 -1,0l0 0 -1 0 0 0c-1,0 -1,0 -1,0l-1 0c-2,0 -3,0 -4,0 -2,-3 -3,-4 -4,-4l0 0zm2 0c0,1 1,2 3,3l1 0c0,0 0,0 1,0l0 0 1 0c0,0 1,0 1,0l0 0 2 0 0 0c0,0 0,0 1,0l0 0c1,0 1,0 1,0 0,0 0,0 1,0 1,0 1,0 1,0l0 0 1 0 0 0 0 0 0 0 0 0c1,0 2,-1 4,-2l0 -1c0,0 0,0 -1,0l-17 0 0 0zm22 0c0,1 0,1 1,1l2 0c0,0 0,0 0,-1l-2 0 -1 0zm3 0c0,1 0,1 0,1l1 0 0 -1 -1 0zm-27 1l0 0 0 0 0 0 0 0zm30 1c0,0 -1,0 -2,0l0 1c1,-1 2,-1 2,-1l0 0zm-9 1c0,0 0,1 0,1l-1 0 0 -1 1 0zm4 2c0,0 0,-1 1,-1l0 0c-1,1 -1,1 -1,1zm-17 0l0 0 0 0 0 0 0 0zm7 0c1,0 1,0 1,0l0 0c-1,0 -1,0 -1,0l0 0zm-13 1l0 0c0,0 -1,1 -1,2l0 0c0,-1 0,-2 0,-2l1 0zm-12 1l0 0 0 0 0 0 0 0zm31 2l0 0 0 0 0 0 0 0zm-1 2c0,0 0,0 0,0l0 0c0,0 -1,0 -1,0l1 0zm-19 1l0 0c0,0 0,0 0,0l0 0zm-1 0l0 1 0 0 0 -1 0 0zm1 1l0 0 -1 0 0 0 1 0zm1 0l0 1 -1 -1 0 0 1 0zm18 2l1 1 0 0 -1 0 0 -1 0 0zm1 2l0 0 -1 0 0 0 1 0zm-18 4c0,1 -1,2 -2,4 0,0 0,0 0,0l1 0 0 0c0,0 1,0 1,2l-2 -1 0 0c-3,1 -4,2 -4,2l0 0c1,2 2,3 3,3 1,0 1,0 1,0 1,0 2,-1 3,-2l0 1 0 0 1 -2 0 -1 -1 0c0,0 0,0 0,0l-1 0c1,-1 2,-1 2,-1l0 -2c0,-1 -1,-2 -2,-2l0 -1 0 0 0 0zm21 2c0,0 0,0 0,0l0 0c2,1 3,2 3,2 1,0 1,0 1,0 0,0 1,0 1,1l0 0c0,1 1,1 3,3l1 -1 0 0c0,1 -1,1 -1,1 0,1 1,1 1,2l0 0 0 -7 0 -1 -6 1 -3 -1zm-1 1l0 0 -1 0 0 0 1 0zm-36 4c-1,0 -1,2 -1,4 0,0 0,0 0,0 -1,2 -2,4 -2,6 0,2 1,3 1,4l0 0c-1,0 -1,-1 -2,-2l0 0c-3,2 -5,3 -5,4l0 1 0 0c1,1 2,2 2,2l1 0c1,0 1,-1 2,-1l2 1c1,0 2,-1 3,-2l-2 -2 0 0c0,0 1,1 3,1l1 0c0,0 0,0 1,0l1 0 1 0 0 0c-1,0 -1,0 -1,0l0 1c0,0 0,-1 1,-1 0,0 1,0 2,1l0 -1c0,0 1,0 1,0l0 0 2 0 1 0 0 0c2,0 4,-1 5,-2l0 -1 -4 0 0 0c2,-4 4,-6 4,-7 -1,-1 -3,-2 -6,-3 0,0 -1,0 -1,0 0,0 -1,-1 -3,-1l-1 0 -2 0c0,0 -1,0 -1,0l0 -1c1,0 2,0 3,0 0,0 0,0 1,0l1 0c0,1 0,1 1,1l0 0 0 -2 -2 1 0 0c-1,0 -2,0 -2,0l-2 0 0 0c0,0 -1,0 -1,-1l-1 0 0 0c0,0 -1,0 -1,0l0 0zm17 0l0 0 0 0 0 0 0 0zm26 1c0,1 0,1 0,1l0 -1 0 0zm0 2l0 0 0 0 0 0 0 0zm1 1l0 0 0 0 0 0 0 0zm-28 1c0,0 0,0 1,0 0,0 0,0 0,0 0,-1 -1,-1 -1,-1l0 0 0 1zm28 5c0,0 1,0 1,-1l0 1c0,0 0,0 0,1 0,0 -1,-1 -1,-1l0 0zm-48 3l0 1 0 0 0 -1 0 0zm22 0c-1,1 -2,2 -3,3 0,1 1,1 2,2l1 0 0 -1c0,0 0,1 1,1l0 0c0,-1 1,-1 1,-1l0 0 1 0c1,0 1,-1 1,-1 -1,-2 -2,-3 -2,-3l-2 0zm-27 1c-1,0 -2,0 -3,2l0 0c1,0 2,0 3,-2l0 0zm6 0l0 1 -1 0c0,-1 0,-1 0,-1l1 0zm-7 3c0,0 -1,0 -1,0 -1,0 -2,1 -2,3l0 15c0,2 0,3 1,3l0 0c2,0 2,0 2,-1l1 1c2,-3 3,-4 4,-4 0,-1 1,-2 2,-4l-1 0 1 -1 0 0 1 0 0 0c0,0 -1,-1 -1,-1l1 0c0,-1 -1,-1 -2,-1l0 -1 0 0c0,0 0,0 0,0 0,-1 0,-1 0,-2l0 0 0 -1 0 0 1 1 0 0 0 -1c0,0 0,-1 -1,-1l-1 0c0,0 0,0 0,0l0 0c2,0 2,0 3,0l0 0c0,1 0,2 1,2l-1 1 0 2c0,1 1,2 1,4l0 0c0,1 0,1 1,1l0 1c0,0 0,0 0,-1l-2 1c0,0 0,-1 0,-2l0 0 0 -1 0 0c0,2 -1,3 -3,4 -2,2 -3,3 -5,5 1,0 1,0 1,0 1,2 2,3 3,3l4 0c0,0 0,0 1,0 0,-1 -1,-2 -1,-2l0 0c1,0 1,0 1,2 1,0 3,-1 5,-3 0,0 -2,0 -4,0l-1 0 0 0c0,0 0,0 0,0 0,0 -2,1 -5,1l0 0 0 -1c3,0 4,-1 4,-2l0 0c0,0 0,-1 0,-3l1 1c0,0 0,0 0,0 0,2 0,3 2,3 1,0 1,0 2,-1l1 0c0,0 1,0 1,0l0 0c-2,-2 -3,-3 -3,-3l0 0 3 1 0 0 0 -5 15 0c0,-1 0,-1 1,-2 0,0 0,0 0,0l0 -1 0 1c0,-1 0,-1 1,-2 -1,-1 -1,-1 -1,-1l0 0 0 1c0,0 0,0 0,0 -1,0 -1,-1 -1,-2 0,0 0,0 0,0l-1 -4c0,-1 0,-1 0,-1l0 0 -1 0c-1,0 -1,-1 -2,-1l0 0c0,0 0,1 1,1l0 0 0 0c-1,0 -2,-1 -3,-1l0 0 1 0 0 0c0,0 -1,0 -1,-1 -2,1 -4,1 -7,1l0 0 0 0 2 0 0 0c0,0 -1,1 -2,1l0 -1c-1,1 -2,1 -4,1 0,0 0,0 -1,0l0 -1 1 0c0,1 0,1 1,1l1 0 1 -1 0 0 0 0c0,0 0,0 -1,0l0 0 -1 0c-1,0 -2,0 -2,0 -2,1 -3,1 -4,1 -1,0 -1,0 -1,0l-4 0 -1 0 0 0c0,0 0,0 -1,0l0 0c0,0 -1,0 -1,-1 0,0 0,0 1,0l0 0 0 0c0,0 -1,-1 -1,-1l0 0zm0 1l0 0 -1 0 0 0 1 0zm34 0l0 0 -1 0 0 0 1 0zm-12 0l0 0 -1 0 0 0 1 0zm-2 0l0 0 0 0 0 0 0 0zm1 0l0 0 -1 0 0 0 1 0zm14 0l0 0 0 0 0 0 0 0zm22 2l0 1 0 0 0 -1 0 0zm-16 1l0 0 0 0 0 0 0 0zm-6 0c0,1 0,1 0,1l0 -1 0 0zm23 0l0 1c0,0 0,1 0,1l0 0 0 0 0 -1 -1 0 0 -1 1 0zm-14 1c0,0 0,1 0,1l0 0c0,0 -1,-1 -1,-1l1 0zm13 0l0 1 0 0 0 -1 0 0zm-28 1l0 1 0 0 0 -1 0 0zm28 1c0,0 0,-1 0,-1l0 2 0 0 0 -1zm-51 0c0,1 1,1 1,1l0 1c0,0 0,1 0,1l1 0 -1 -1 1 -1c-1,0 -1,-1 -1,-1l-1 0zm40 2c0,0 0,1 -2,1l0 0c1,0 2,-1 2,-1l0 0zm12 0l0 0 -1 0 0 0 1 0zm-29 1c1,-1 1,-1 1,-1l0 0 0 0c0,1 0,1 0,1l-1 0zm2 -1l0 1 0 0 0 -1 0 0zm19 0l0 1 0 0 0 -1 0 0zm2 0l0 1c0,0 0,0 0,-1l0 0zm-20 2c-1,0 -1,0 -1,0l0 0c0,1 0,1 1,1l0 0c0,0 0,-1 0,-1zm30 3l0 0 0 1 0 -1 0 0zm0 1c0,0 0,0 0,0l0 0 0 0 0 0zm-54 1c1,0 1,0 1,1l0 0c-1,0 -1,-1 -1,-1l0 0zm52 2l0 1c0,1 0,1 0,1l1 1 0 0c-1,0 -1,0 -1,1 0,0 0,0 0,0 -1,1 -1,2 -1,3 0,0 0,0 0,0 1,-1 2,-1 3,-2 -1,-3 -1,-5 -1,-5l-1 0zm-52 2c0,0 0,0 0,0l0 0 0 0zm-6 3c1,0 1,0 1,0l1 0 0 0c-1,0 -1,0 -2,0l0 0zm-2 1l1 0 0 0 -1 0 0 0zm92 -28c0,0 -1,0 -3,1 0,0 0,0 0,0l-2 0c0,0 0,0 0,0 0,0 -1,0 -1,0l-1 0c-1,0 -3,0 -4,0l-1 0 0 0c-1,0 -2,1 -3,1l-1 -1 -1 0c-1,0 -1,1 -1,1l0 1 1 -1 0 1 -2 5c0,2 1,4 1,6 1,2 3,3 7,3l1 0c1,0 1,0 2,0 1,0 2,-2 4,-4l0 0c0,-1 1,-1 1,-2l0 0 0 0c0,1 -1,3 -3,5l0 1c0,0 0,0 0,0l1 0 1 0 3 0c0,0 0,0 0,0l0 0c1,0 2,0 3,0l0 0c1,0 1,0 1,0 1,0 1,0 1,0l3 0c3,0 6,0 7,-1 0,0 0,1 0,1 1,0 1,-1 2,-1 0,0 0,0 1,0 1,-1 2,-1 2,-2l0 0c2,-1 3,-3 3,-5 -1,0 -1,0 -1,0 1,0 1,0 1,-1l0 1 0 0 0 -2c-1,1 -1,2 -1,2l0 0c0,-1 0,-2 0,-4l0 0 0 0c0,-1 0,-1 0,-2 0,0 0,0 0,0l0 0 0 0 0 0c-1,-2 -1,-3 -2,-3l-14 0c-2,0 -2,0 -2,1l-1 0 0 0c0,0 0,0 1,0 0,-1 -1,-1 -2,-1l-1 0zm-8 -24c0,0 0,-1 -1,-1l0 1c0,-1 -1,-1 -2,-1 0,0 0,0 0,0 -1,0 -1,0 -1,0 0,0 -1,0 -1,0 -1,0 -2,0 -2,0l-1 0c0,0 0,0 0,0l-1 0 -4 0c0,0 0,0 0,0l0 1c0,2 1,4 4,5l1 0c0,0 0,0 1,0l0 -1 -1 0 0 0 1 0c0,0 0,0 1,0l0 1c-1,3 -2,7 -2,10 0,0 0,1 0,2 2,5 5,7 9,7l0 0c1,0 1,0 1,0l0 0c2,0 3,0 3,-1l0 -4 10 0c0,0 0,0 0,-1l1 0c0,1 0,1 0,1 0,0 0,0 0,0l3 0c1,0 1,0 2,0 0,0 0,0 0,0l0 0c2,0 4,0 4,-1 -2,-1 -3,-3 -5,-6 0,-2 -1,-3 -1,-4 0,1 0,2 0,2l0 0c0,2 -1,4 -2,5l-1 0c0,0 1,-1 2,-1 0,-1 -1,-1 -1,-1l1 -2c-1,0 -1,0 -1,0l0 0 0 -1c0,0 0,0 0,-1 0,0 0,0 0,0l0 0 0 0c0,-1 0,-1 -1,-1l1 -1 0 0c0,0 0,0 0,0l-1 -1c1,-1 1,-1 2,-1l0 -1 -1 1 0 0 -1 -1 -11 0c0,0 0,0 0,0l0 -3 0 0c0,0 -1,0 -1,0l0 0 -5 0c0,-1 -1,-1 -2,-1l0 0c1,0 2,0 2,0 0,0 0,0 1,0zm-6 -17c-5,0 -7,3 -7,7l0 1 0 1c0,0 0,0 0,0l0 0c4,4 7,5 9,5 0,0 0,0 0,0 0,0 0,1 1,1 0,0 0,0 0,-1 1,1 2,1 2,1l0 -1c0,1 1,1 1,1l0 0 2 -1 0 1c2,-1 3,-1 3,-1l2 0 1 0c0,0 0,0 0,0l0 0 1 0 0 0c0,0 1,0 2,-1l-1 1c1,2 2,2 3,2l2 0 1 0c0,0 1,0 1,0 0,0 0,0 0,0 0,0 0,0 1,0l4 0c0,0 1,0 1,0l0 -1c-3,0 -4,0 -6,-1l0 1c0,0 0,0 1,0l-1 1c0,0 0,0 0,-1 -1,0 -1,1 -3,1l0 0 0 0c0,0 1,-1 2,-1l0 0 1 -1 0 0c0,0 -1,-1 -1,-2l0 0 0 1c0,0 0,0 0,0 0,1 0,1 0,1l-2 -3 -1 0c0,0 0,1 -1,1l0 0 1 -1 0 -2 -1 -1 1 0c0,1 0,2 0,2l0 -1c0,0 0,0 0,-1l0 0c0,0 0,0 0,-1 0,0 0,0 -1,1l0 -1 1 0 0 -2c0,0 0,1 0,1l-1 0c0,-1 0,-1 0,-2l0 0 -1 1 0 -1 0 0 0 -1 2 0 -1 1 0 0c1,0 1,0 1,1l0 0 -1 -4c1,0 1,0 1,0l0 0 -1 -1 -2 1 1 -1 0 0 -17 0zm20 0c0,0 0,1 0,2 0,1 0,1 0,2l0 1c0,1 0,2 0,2l0 0c0,1 0,1 0,2 2,3 4,5 5,5l1 0 0 0c1,0 2,0 3,-1l0 1c0,-1 1,-1 2,-1 1,0 3,-1 5,-2 2,-2 3,-3 4,-4l0 0c1,-1 1,-2 1,-4 -1,-2 -4,-3 -6,-3l-15 0 0 0zm7 21c-1,0 -1,1 -1,1 1,5 1,7 2,8 2,3 3,4 4,5l0 0c2,-2 3,-4 3,-6l0 -2c-1,-4 -4,-6 -7,-6l-1 0zm11 21c0,0 0,1 -1,2l0 0 0 0 0 1 0 0 0 0c0,1 0,1 0,1l1 2 -1 0c0,0 0,0 0,0 0,0 0,0 0,0 0,1 0,1 1,2 -1,0 -1,0 -1,0 2,3 3,5 4,5 2,-1 2,-3 2,-6l0 0c0,-3 -1,-5 -3,-7l-1 0 0 1c0,-1 0,-1 -1,-1l0 0zm-41 -9l0 1c0,0 0,0 -1,1 0,1 -1,2 -3,3l0 5 0 1c2,-1 3,-2 3,-3 2,1 3,1 3,1l1 0c1,-1 2,-1 2,-1 0,-1 -2,-3 -5,-6l0 -2c0,0 0,0 0,0l0 0 0 0zm-4 3l1 0c0,0 1,-1 1,-2 0,0 0,0 0,0 0,-1 0,-1 1,-2 -1,0 -1,0 -1,-1l0 0 1 0 -1 -1 1 0 -1 0c0,-1 1,-2 1,-2 0,-1 0,-1 -1,-1l0 -1 0 -1c0,0 0,0 0,0l0 0 1 0 0 0c0,0 0,-1 0,-1 -1,-1 -1,-1 -1,-1l0 -1 -2 -2 0 0 0 16zm44 16c0,0 -1,0 -1,0l1 1c-2,1 -3,2 -4,3 0,1 0,1 1,2l3 0 0 -1c0,0 0,0 1,0 0,0 1,0 2,-1l0 -1 -3 -3zm-44 -42c0,0 0,0 0,1l0 4c0,0 1,0 2,0 2,0 2,-1 2,-1l0 0c-1,-2 -2,-3 -4,-4zm49 -3c-2,1 -3,2 -4,4l0 0 1 0 0 0 -1 -1 1 0c0,1 0,2 1,2 2,0 2,-1 2,-3 0,-1 0,-2 0,-2zm-11 9l0 0 3 0c2,0 4,0 6,-2l0 0 -2 0 -7 2zm-18 33l0 0 0 3 1 3 0 0 -1 0c0,0 0,-1 0,-2l-1 0 0 0 0 -1 0 0c0,0 0,-1 0,-1 0,-1 0,-1 0,-1 0,-1 0,-1 -1,-1 0,0 1,0 1,0 -1,-1 -1,-2 -1,-3 -2,-1 -3,-2 -4,-3l0 1c0,0 0,0 0,-1l1 0 0 0c0,1 1,2 2,2 0,0 0,0 0,-1l1 0c0,2 1,3 1,3l0 0c0,0 0,1 1,1l0 1c0,0 0,0 0,0l0 0zm-18 -5c-1,0 -2,1 -2,1l0 4 0 0 1 0 0 0c0,0 0,0 0,-1l0 0 1 -1 0 1 0 0c0,-1 0,-1 -1,-1l0 -1c1,0 2,0 2,-1 0,-1 0,-1 -1,-1zm-1 6l0 1c0,0 0,0 0,0l-1 0 0 0 1 0 0 -1c0,0 -1,0 -1,0l0 1c0,0 0,1 1,3l0 0 0 -1 1 0c0,0 0,1 0,1l-1 0c1,1 1,1 1,1l0 0c0,0 0,-1 0,-1l0 0c0,-1 0,-1 -1,-2l0 -1 1 0 0 0c0,0 0,-1 -1,-1l1 -1 0 0 -1 0 0 1zm21 -35c-2,0 -3,1 -3,1l0 0 5 0 0 0c0,0 -1,-1 -2,-1l0 0zm10 6c0,0 -1,1 -1,2 0,1 0,2 0,2 1,0 1,0 1,0l0 -1c0,-1 0,-1 0,-2 0,0 0,0 0,0l0 -1 0 0zm10 20l1 2 0 0c0,0 1,-1 1,-1 0,-1 0,-1 -2,-1l0 0zm1 3c0,0 0,1 -1,2 1,1 1,2 1,2l0 -2 0 -1c0,0 0,-1 0,-1zm-27 -28c0,0 -1,1 -1,1l-1 0c0,0 0,0 0,0 0,0 0,0 1,0l0 0c0,0 1,0 1,0l2 0c0,0 0,0 0,0 0,0 -1,-1 -2,-1l0 0zm-13 20c0,-1 1,-1 1,-1 1,1 1,1 1,2l0 0 -2 -1zm36 -21c-2,0 -3,0 -3,1 0,0 1,0 1,0 0,0 1,0 2,0l0 -1zm4 -2c-1,0 -1,1 -1,1l0 0c1,0 2,0 2,0l0 -1 0 0 -1 0c0,0 0,0 0,0l0 0zm-39 18l0 1 0 0 0 -2 0 0 0 1zm0 -6c0,1 0,1 0,1 1,0 1,0 1,0l0 -1c0,0 0,0 -1,0l0 0 0 0zm0 3l1 0c0,0 -1,0 -1,-1l0 0 0 1zm0 11c0,1 0,1 1,2l0 0 -1 -1 0 -1 0 0zm31 -7c0,0 0,1 0,1 0,0 0,1 0,1 0,-1 0,-1 0,-2l0 0zm-17 19c0,0 0,0 0,-1l1 0c-1,1 -1,1 -1,1l0 0 0 0zm6 -49c0,0 1,-1 1,-1l0 0 0 1 -1 0 0 0zm-18 15c1,0 1,0 1,0l1 0 0 0c-1,0 -1,0 -2,0l0 0zm42 -11l1 0c0,0 0,0 0,0l0 0 0 0 -1 0zm-29 47c0,1 0,1 0,1l0 0c0,0 0,0 0,0l0 -1 0 0zm10 -19l0 0c0,0 0,1 0,1l0 0 0 0c0,-1 0,-1 0,-1l0 0zm-28 -11c0,0 1,0 1,0l0 1c-1,0 -1,-1 -1,-1l0 0zm22 18l0 1c0,0 -1,0 -1,0l0 0 1 -1 0 0zm-10 -24c0,0 0,0 0,0l0 0 0 0zm-8 -2l0 0c0,0 0,0 0,0l0 0 0 0zm34 0l0 0 0 0 0 0 0 0zm-27 27c0,1 0,1 0,1l0 0 0 0c0,0 -1,0 -1,0l0 -1 1 0zm11 1l0 0 0 0 0 0 0 0zm-19 -5c0,0 0,0 0,1l0 0 0 -1zm-2 8c0,-1 0,-1 0,-1l0 1 0 0zm0 1l0 0 -1 0 0 0 1 0zm43 -33l1 0 0 -1 -1 0 0 1zm-4 0l0 0 0 0 0 0 0 0zm-8 14l0 1 -1 0 0 -1 1 0zm-26 15l0 0 0 0 0 0 0 0zm18 -35l0 0 0 0 0 0 0 0zm0 -6l0 1 -1 0 0 -1 1 0zm-19 15l0 1 0 0 0 -1 0 0zm17 27l0 0 -1 0 0 0 1 0zm6 -12l0 1 0 0 0 -1 0 0zm-27 -8l0 0 0 0 0 0 0 0zm22 -21l0 1 0 0 0 -1 0 0zm-11 40l0 0 -1 0 0 0 1 0zm12 -36l0 0 0 0 0 0 0 0zm-22 21l0 0 -1 0 0 0 1 0zm7 14l0 0 -1 0 0 0 1 0zm15 -40l0 1 0 0 0 -1 0 0zm20 48l0 0 0 0 0 0 0 0zm-1 3l0 1 -1 0 0 -1 1 0z"/>
  </g>
 </g>
</svg>
